<?xml version="1.0" encoding="UTF-8"?>
<!DOCTYPE svg PUBLIC "-//W3C//DTD SVG 1.1//EN" "http://www.w3.org/Graphics/SVG/1.1/DTD/svg11.dtd">
<svg xmlns="http://www.w3.org/2000/svg" version="1.1" width="700px" height="700px" style="shape-rendering:geometricPrecision; text-rendering:geometricPrecision; image-rendering:optimizeQuality; fill-rule:evenodd; clip-rule:evenodd" xmlns:xlink="http://www.w3.org/1999/xlink">
<g><path style="opacity:0.984" fill="#010100" d="M 222.5,77.5 C 252.719,77.0286 276.886,88.6952 295,112.5C 316.319,97.1944 339.819,92.6944 365.5,99C 404.762,112.313 424.929,139.813 426,181.5C 454.167,164.501 483.001,163.335 512.5,178C 545.101,199.052 558.268,228.886 552,267.5C 549.093,280.312 543.759,291.979 536,302.5C 452.542,401.627 368.709,500.46 284.5,599C 252.076,625.527 217.743,628.194 181.5,607C 161.88,592.348 150.047,572.848 146,548.5C 145.333,415.833 145.333,283.167 146,150.5C 154.169,107.827 179.669,83.4939 222.5,77.5 Z M 225.5,509.5 C 238.077,509.908 245.077,516.408 246.5,529C 243.985,543.414 235.652,549.081 221.5,546C 212.188,540.869 208.688,533.036 211,522.5C 213.584,515.487 218.417,511.154 225.5,509.5 Z"/></g>
<g><path style="opacity:1" fill="#e54b3b" d="M 219.5,100.5 C 257.554,99.9371 280.388,118.27 288,155.5C 288.984,286.853 288.651,418.187 287,549.5C 278.641,580.2 258.641,596.533 227,598.5C 195.071,595.238 175.737,577.905 169,546.5C 168.333,414.5 168.333,282.5 169,150.5C 175.796,123.537 192.629,106.87 219.5,100.5 Z M 225.5,509.5 C 218.417,511.154 213.584,515.487 211,522.5C 208.688,533.036 212.188,540.869 221.5,546C 235.652,549.081 243.985,543.414 246.5,529C 245.077,516.408 238.077,509.908 225.5,509.5 Z"/></g>
<g><path style="opacity:1" fill="#26ad5f" d="M 311.5,474.5 C 310.833,366.833 310.167,259.167 309.5,151.5C 308.615,145.574 307.281,139.741 305.5,134C 319.662,121.29 336.328,116.624 355.5,120C 385.274,128.44 400.941,148.106 402.5,179C 402.491,184.88 401.991,190.713 401,196.5C 370.862,289.082 341.028,381.748 311.5,474.5 Z"/></g>
<g><path style="opacity:1" fill="#030f09" d="M 309.5,151.5 C 310.167,259.167 310.833,366.833 311.5,474.5C 311.631,475.376 311.298,476.043 310.5,476.5C 309.5,368.169 309.167,259.835 309.5,151.5 Z"/></g>
<g><path style="opacity:1" fill="#287fb8" d="M 463.5,190.5 C 492.971,188.812 514.138,201.145 527,227.5C 534.043,249.909 530.709,270.576 517,289.5C 451.333,367.167 385.667,444.833 320,522.5C 351.031,423.07 382.697,323.737 415,224.5C 426.726,206.573 442.893,195.24 463.5,190.5 Z"/></g>
<g><path style="opacity:0.983" fill="#010000" d="M 219.5,487.5 C 244.342,485.197 260.509,495.863 268,519.5C 271.269,544.515 261.102,561.015 237.5,569C 212.091,572.544 195.591,562.044 188,537.5C 185.147,512.17 195.647,495.503 219.5,487.5 Z M 225.5,509.5 C 218.417,511.154 213.584,515.487 211,522.5C 208.688,533.036 212.188,540.869 221.5,546C 235.652,549.081 243.985,543.414 246.5,529C 245.077,516.408 238.077,509.908 225.5,509.5 Z"/></g>
</svg>
