<svg clip-rule="evenodd" fill-rule="evenodd" stroke-linejoin="round" stroke-miterlimit="2" viewBox="0 0 168 167"
     xmlns="http://www.w3.org/2000/svg">
    <g transform="matrix(.230714 0 0 .232835 -1540.98 -4198.05)">
        <path d="m6682.06 18030.2h722.396v715.743h-722.396z" fill="none"/>
        <g fill-rule="nonzero">
            <path d="m3011.21 1603.63c-76.1 38.07-152.01 82-226.66 131.07-61.11 40.14-121.4 83.76-180.31 130.39v.05c-318.55 252.1-597.32 593.73-749.95 964.58-28.76 69.7-53 140.47-72.2 211.84-34.24 127.1-195.39 166.56-283.97 69.17-131.17-144.17-231.75-337.26-292.73-560.59-7.34-26.71-14.05-53.82-20.19-81.38-87.35-390.92-57.78-862.59 132.08-1323.74 13.73-33.4 28.29-66.82 43.78-100.09 636.61-197.2 1167.5 74.06 1650.15 558.7z"
                  fill="#ffc100"
                  transform="matrix(.26665043777 -.05980241862 .06035213085 .26422195283 6426.3105766859 17990.647476612)"/>
            <path d="m1362.92 1047.06c-14.81 31.88-29.36 65.17-43.24 98.95-178.64 433.9-225.51 903.46-131.95 1322.18 6.15 27.61 12.93 54.95 20.16 81.26 60.86 222.88 161.88 416.36 292.15 559.54 40.85 44.91 100.48 63.19 159.52 48.9 59.29-14.35 104.16-58.09 120.03-117 18.94-70.42 43.27-141.8 72.31-212.15 146.09-354.98 412.38-697.63 749.87-964.95l.87-.73c58.89-46.63 119.61-90.54 180.49-130.52 73.74-48.47 148.98-92.07 223.72-129.62-553.47-554.69-1075.99-731.319-1643.93-555.86zm257.07 2120.78c-46.7 0-91.08-19.41-123.78-55.36-130.82-143.78-232.25-338-293.32-561.66-7.25-26.39-14.05-53.81-20.22-81.5-93.78-419.75-46.82-890.41 132.21-1325.28 14.07-34.22 28.81-67.94 43.83-100.21l.48-1.04 1.1-.34c304.97-94.465 594.31-86.711 884.5 23.72 254.44 96.82 505.73 272.02 768.26 535.63l2.53 2.54-3.21 1.6c-75.6 37.83-151.77 81.88-226.4 130.93-60.45 39.7-120.75 83.29-179.25 129.56l-.87.74c-337.22 266.88-603.27 609.07-749.16 963.54-28.96 70.15-53.21 141.32-72.1 211.52-16.37 60.77-62.66 105.89-123.81 120.69-13.64 3.31-27.31 4.92-40.79 4.92z"
                  fill="#6c0000"
                  transform="matrix(.26665043777 -.05980241862 .06035213085 .26422195283 6426.3105766859 17990.647476612)"/>
            <path d="m1589.64 3141.23c-28.74-6.26-55.25-21.41-76.19-44.44-121.1-133.08-219.55-316.57-281.71-533.18 9.06 3.92 18.52 7.34 28.32 10.2 5.57 1.62 11.14 3.03 16.7 4.23 61.5 214.58 159.85 400.2 286.97 539.9 8.08 8.89 16.77 16.65 25.91 23.29zm-424.53-952.4c-24.98-320.48 23.35-681.15 174.68-1044.24 8.27-.17 16.58-.26 25-.26 7.05 0 14.12.06 21.28.18-1.07 2.58-2.13 5.15-3.19 7.72-142.22 345.44-194.5 696.73-175.07 1015.6-15.34 5.31-29.7 12.37-42.7 21z"
                  fill="#ffe793"
                  transform="matrix(.26665043777 -.05980241862 .06035213085 .26422195283 6426.3105766859 17990.647476612)"/>
            <path d="m2674.51 1681.53c-7.42-6.07-14.58-12.6-21.47-19.59-75.33-76.67-167.21-147.06-268.96-209.57-1.94-2.68-5.4-4.85-9.62-5.87-105.69-64.03-221.72-119.62-340.8-165.06.85-7.04 1.18-14.1 1.03-21.13 2.97-6.7 5.51-13.65 7.6-20.84 4.31-14.82 6.45-29.82 6.58-44.76 236.77 87.71 466.53 217.42 627.82 381.59 20.35 20.71 43.48 37.95 68.48 51.37-22.84 8.78-37.44 22.51-46.75 36.3-.77.36-1.5.82-2.19 1.38-5.63 4.66-10.64 10.15-14.91 16.17zm-1064.08-515.78c-78.02-12.76-153.56-20.01-224.36-21.24 10.99-26.5 22.52-53.01 34.61-79.44 65.02 1.07 135.48 7.49 209.22 18.99-5.32 9.97-9.67 20.57-12.92 31.74-4.81 16.53-6.91 33.3-6.55 49.95z"
                  fill="#d68600"
                  transform="matrix(.26665043777 -.05980241862 .06035213085 .26422195283 6426.3105766859 17990.647476612)"/>
            <path d="m1339.79 1144.59c11.02-26.45 22.59-52.89 34.71-79.35 8.87-.22 17.83-.32 26.94-.32 6.35 0 12.78.05 19.24.15-12.09 26.43-23.62 52.94-34.61 79.44-7.16-.12-14.23-.18-21.28-.18-8.42 0-16.73.09-25 .26z"
                  fill="#d5a167"
                  transform="matrix(.26665043777 -.05980241862 .06035213085 .26422195283 6426.3105766859 17990.647476612)"/>
            <path d="m1851.94 2782.14c-3.39-3.48-6.68-6.95-9.82-10.45-6.85-7.66-13.02-15.36-17.91-23.2-4.98-7.97-8.93-16.5-11.6-25.09-5.4-17.32-4.78-34.21 3.09-47.08 4.02-6.76 10.44-13.72 18.06-21.28 7.59-7.6 16.39-15.92 24.49-26.86 4.01-5.55 7.7-11.78 10.63-18.64 2.84-6.91 4.6-13.95 5.66-20.69 2.03-13.48 1.57-25.71 1.4-36.61l-.06-4.03-.02-1c0-.27-.01-.23.03-.37.05-.19.08-.38.09-.58-.02-.41.01-.78.17-1.04.06-.32.06-.66.27-.87.43-1.05 1.2-2.01 2.51-2.85 1.26-.81 2.97-1.31 4.49-1.31h.08c1.57.02 2.82.42 3.98 1.21.29.19.64.32.88.7.15.15.3.29.46.42.12.1.1.03.33.27l.77.84c2.05 2.23 4.09 4.47 6.23 6.61 4.21 4.35 8.66 8.47 13.21 12.51 9.23 7.94 19.01 15.4 30.11 21.72 3 1.7 6.08 3.36 9.28 4.9-36.16 63.73-68.51 128.13-96.81 192.77zm402.57-615.69c-2.96-20.57-6.33-40.83-8.11-60.15-1.86-21.17-3.47-41.62-1.51-60.29.98-9.25 2.91-18.35 5.85-26.21 3-7.79 7.27-15.32 12.64-21.5 5.28-6.3 11.61-11.22 18.13-14.27 3.26-1.58 6.61-2.44 9.95-3.1 1.92-.29 3.93-.43 6.05-.43 1.52 0 3.09.07 4.73.21 8.02.8 17.24 3.35 27.82 6.35 10.47 2.9 22.54 6.3 36.88 6.65h.42c7.09 0 14.61-.93 21.93-3.16 7.47-2.36 14.52-6.12 20.53-10.7 12.18-9.27 20-21.11 25.66-32.67 2.85-5.84 5.14-11.73 7.03-17.63 1.9-5.85 3.45-11.99 4.65-17.47 2.44-11.1 4.25-21.56 6.6-30.99 2.35-9.42 5.18-17.85 9.18-24.63.47-.88.99-1.71 1.54-2.49.53-.78 1.07-1.72 1.53-2.19.85-1.2 1.92-2.3 3.01-3.41 2.32-2.13 5.1-4.05 8.21-5.65 5.82-2.87 12.8-4.57 19.59-4.57.56 0 1.12.01 1.67.03 3.65.1 7.24.61 10.45 1.66.85.19 1.6.52 2.36.82.77.31 1.51.51 2.45 1.06 1.76.96 3.59 1.79 5.34 2.77 13.61 7.94 23.97 21.75 30.64 38.28-104.71 86.37-204.29 181.86-295.22 283.68z"
                  fill="#b75d00"
                  transform="matrix(.26665043777 -.05980241862 .06035213085 .26422195283 6426.3105766859 17990.647476612)"/>
            <path d="m1619.87 3185.99c-51.72 0-100.86-21.49-137.07-61.31-197.76-217.33-324.55-538.98-357.03-905.72-34.88-393.82 39.99-802.81 216.49-1182.76 4.83-10.38 17.13-14.89 27.53-10.06 10.37 4.82 14.88 17.14 10.06 27.52-382.872 824.17-222.6 1651.67 133.6 2043.13 36.32 39.93 89.36 56.18 141.84 43.48 52.75-12.77 92.67-51.68 106.79-104.1 78.56-291.8 244-587.08 478.44-853.93 218.49-248.69 488.9-460.76 761.43-597.17 10.23-5.12 22.68-.97 27.81 9.26 5.12 10.23.97 22.68-9.26 27.8-577.08 288.83-1066.72 861.42-1218.4 1424.82-18.12 67.27-69.36 117.21-137.05 133.6-15.11 3.65-30.25 5.44-45.18 5.44z"
                  fill="#6c0000"
                  transform="matrix(.26665043777 -.05980241862 .06035213085 .26422195283 6426.3105766859 17990.647476612)"/>
            <path d="m2733 2151.79c-17.01 24.35-44.02 40.66-73.72 41.1-62.28.92-92.24-60.79-93.3-115.63-.06-2.35-.06-4.7-.01-7.03.52-43.62 13.15-86.53 14.62-130.25 1.71-47.81-14.5-101.86-58.98-121.6-8.89-3.94-19.05-5.42-29.09-4.65-17.13 1.3-33.89 9.2-43.51 22.79-14.64 20.8-16.84 47.45-22.78 72.12-5.86 24.37-18.47 50.45-42.29 58.15-16.53 5.34-33.45.52-50.57-4.3-13.16-3.71-26.45-7.42-39.76-6.51-30.09 2.12-54.13 28.3-63.38 56.99-9.25 28.68-6.76 59.7-4.18 89.75 3.9 46.13 19.73 111.19 13.76 157.07-5.99 45.93-32.74 92.08-76.34 107.57-28.85 10.22-62.52 6.52-88.21 23.03l-.05.05s-.12.09-.34.22c-1.23.8-2.42 1.61-3.55 2.48-.18.13-.35.27-.57.4-31.93 24.53-34.98 72.67-34.5 113.84-9.14 105.98-86.54 67.67-131.33 17.62-4.42-4.92-9.84-7.75-15.44-8.89-16.07-3.22-33.76 7.97-33.91 26.81-.01.16-.04.37 0 .53.22 18.36 1.62 37.44-5.46 54.43-11.18 26.81-40.77 41.9-54.13 67.69-16.53 31.9-3.82 71.76 17.55 100.63 21.33 28.87 50.51 51.15 72.52 79.47 24.98 32.14 40.07 71.73 42.85 112.32 2.34 33.77-5.15 70.62-30.8 93.03-27.49 23.92-70.02 17.27-91.14-12.46-13.49-18.99-27.26-36.92-44.23-49.47-12.86-9.54-27.53-15.95-45.26-17.32l-6.68-398.37 449.78-528.79 141.54-166.44 162.71-191.26 101.31-5.28 56.55-.04 73.23-.09c-35.27 34.59-12.8 107.51-3.58 156 9.25 48.55 31.85 93.35 47.98 140.04 19.6 56.88 29.37 121.68-7.31 174.25z"
                  fill="#ffc100"
                  transform="matrix(.26665043777 -.05980241862 .06035213085 .26422195283 6426.3105766859 17990.647476612)"/>
            <path d="m1717.84 2965.29c12.35-.16 25.15 2.42 36.85 7.45 11.73 5.03 22.29 12.22 31.35 20.33 9.16 8.05 17.2 16.81 24.53 25.72 3.67 4.43 7.24 8.94 10.68 13.31 2.69 2.94 5.31 5.91 8.54 8.16 6.2 4.79 13.7 7.73 21.25 8.69 7.55 1.29 15.14.05 21.78-2.59 3.27-1.5 6.42-3.2 9.16-5.56l2.12-1.68 2.15-2.12c1.51-1.32 2.67-3.03 4.06-4.48 4.97-6.44 9.05-13.94 11.69-22.45 2.73-8.45 4.32-17.63 4.9-27.09.64-9.47.18-19.04-1.1-28.89-2.58-19.52-7.98-38.79-16.4-56.68-4.2-8.94-9.11-17.54-14.67-25.68-5.54-8.12-11.75-15.76-18.76-23.41-13.92-15.33-30.3-30.4-45.97-48.13-7.75-8.89-15.41-18.51-22.09-29.49-6.59-10.83-11.88-22.55-15.7-35.06-3.83-12.47-5.83-26.04-4.96-40.08.67-13.99 5.22-28.53 12.64-40.85 7.46-12.18 16.52-21.25 24.55-29.21 8.07-7.91 15.31-14.93 20.35-21.77 4.98-6.97 7.49-12.74 8.79-21.24 1.31-8.38 1.16-18.35.93-29.49l-.07-4.25-.02-1.07c0-.43-.02-1.15.03-1.7l.27-3.55c.15-2.35.5-4.71 1.18-7.09.57-2.38 1.22-4.72 2.29-6.98 3.77-9.16 10.59-16.89 18.62-21.9 8.04-5.06 17.3-7.72 26.78-7.71 9.46-.02 19.22 2.91 27.16 8.35 1.99 1.35 3.94 2.76 5.58 4.42l2.54 2.45 1.15 1.17.63.68c1.69 1.83 3.36 3.68 5.13 5.44 3.46 3.59 7.12 6.97 10.83 10.26 7.48 6.44 15.38 12.42 23.49 17.01 8.04 4.66 16.45 8.08 23.57 9.12 3.55.54 6.73.59 9.2 0 2.51-.55 4.47-1.47 6.46-2.98 3.96-2.83 7.94-9.36 10.64-17.53 2.7-8.24 4.31-17.81 5.21-27.69l-.08 2.02c-.19-22.11.31-45.18 5.93-69.12 2.86-11.92 7.15-24.14 14.1-35.74 6.86-11.56 16.75-22.31 28.62-29.83 11.99-7.61 24.95-11.78 36.71-14.28 11.84-2.57 22.85-3.8 32.83-5.47 10.03-1.64 18.92-3.55 26.46-6.86 7.71-3.21 14.93-7.79 21.46-13.51 13.06-11.44 23.34-27.27 29.83-44.71 3.28-8.71 5.69-17.81 7.16-27.02 1.47-9.13 1.9-18.48 1.75-28.43-.49-19.87-3.07-40.57-6.09-61.55-2.97-21.07-6.62-42.3-8.73-64.95-1.84-21.56-3.91-44.19-1.45-68.34 1.31-12.1 3.71-24.2 8.29-36.49 4.7-12.22 11.2-23.66 19.86-33.75 8.55-10.1 19.35-18.97 32.3-25.02 6.45-3.05 13.52-5.11 20.73-6.38 7.33-1.16 14.58-1.17 21.34-.57 13.39 1.39 24.9 4.9 34.98 7.69 10.15 2.91 19.08 4.99 26.28 5.13 7.09-.06 12.26-1.56 17.29-5.42 5.06-3.73 9.75-10.12 13.45-17.78 1.88-3.81 3.5-7.95 4.88-12.28 1.41-4.37 2.51-8.64 3.61-13.65 2.2-9.88 4.03-20.6 6.85-32.03 2.85-11.37 6.66-23.62 13.54-35.43.82-1.47 1.72-2.93 2.69-4.36.97-1.45 1.79-2.82 3.08-4.4 2.32-3.15 4.93-5.96 7.67-8.63 5.55-5.19 11.72-9.36 18.17-12.63 12.96-6.37 26.93-9.37 41.08-8.9 7.07.2 14.22 1.23 21.25 3.44 1.77.46 3.51 1.13 5.24 1.82 1.74.67 3.54 1.35 4.95 2.12 2.99 1.53 6.03 3 8.95 4.66 11.66 6.81 21.7 16.08 29.71 26.34 8.04 10.3 14.11 21.59 18.69 33.12 9.16 23.14 12.56 47.15 12.4 70.92-.3 23.58-3.73 45.7-7.06 67.03-3.35 21.29-6.63 41.77-7.43 61.57-.21 4.92-.26 9.89-.09 14.62l.35 7 .8 6.97c1.34 9.23 3.24 18.47 6.48 27.06 3.18 8.57 7.08 16.77 12 23.91 4.98 7.05 10.77 13.09 17.21 17.76 6.41 4.76 13.73 7.48 21.41 9.17 1.97.28 3.88.79 5.88.99l6.12.25c4.08.23 8.04-.21 12-.96 15.83-2.91 30.81-12.23 41.65-25.27 2.79-3.17 5.08-6.74 7.48-10.67 2.58-3.71 4.36-7.85 6.48-11.81 3.53-8.25 6.62-16.73 8.37-25.73 3.66-17.91 3.59-37.13.68-56.49-1.35-9.69-3.44-19.42-6.02-29.12-2.48-9.74-5.5-19.37-8.8-29.19-6.78-19.92-14.3-39.93-21.47-60.36-14.65-40.72-27.89-83.64-33.55-128.03-1.62-11.11-2.37-22.48-2.66-33.95-.39-11.45.47-23.2 2.23-34.89 1.69-11.71 5.32-23.52 10.64-34.61 5.4-11.06 13.11-21.26 22.57-29.08 4.43-3.65 10.98-3.03 14.64 1.4 3.17 3.84 3.12 9.28.16 13.04l-.28.35c-11.58 14.73-16.33 32.86-17.03 52.15-.55 19.33 2.14 39.41 6.39 59.45 1.97 10.04 4.58 20.09 7.24 30.13 2.7 10.11 5.39 20.1 8.58 29.94 6.37 19.75 13.37 39.55 21.01 59.45 7.61 19.91 15.41 40.03 22.72 60.7 7.47 21.06 13.8 43.19 17.02 66.36 3.38 23.06 3.7 47.48-1.31 71.68-2.38 12.11-6.64 23.95-11.82 35.3-2.92 5.53-5.61 11.2-9.15 16.33-3.26 5.19-6.92 10.61-11.25 15.5-16.81 19.72-40.44 34.47-67.04 39.08-6.59 1.16-13.4 1.81-20.05 1.5l-9.96-.52c-3.33-.36-6.68-1.1-10-1.69-13.2-2.85-26.32-8.19-37.22-16.27-10.94-7.97-20.01-17.78-27.31-28.34-7.21-10.63-12.51-22-16.7-33.58-4.2-11.59-6.7-23.51-8.42-35.5l-1.02-9.03-.48-9.09c-.2-6-.13-11.78.11-17.59 2.07-46.28 14.14-88.15 14.46-127.31.18-19.11-2.74-38.42-9.48-55.26-6.66-16.86-17.13-30.98-30.95-39.04-1.75-.98-3.58-1.81-5.34-2.77-.94-.55-1.68-.75-2.45-1.06-.76-.3-1.51-.63-2.36-.82-3.21-1.05-6.8-1.56-10.45-1.66-7.31-.31-14.96 1.44-21.26 4.54-3.11 1.6-5.89 3.52-8.21 5.65-1.09 1.11-2.16 2.21-3.01 3.41-.46.47-1 1.41-1.53 2.19-.55.78-1.07 1.61-1.54 2.49-4 6.78-6.83 15.21-9.18 24.63-2.35 9.43-4.16 19.89-6.6 30.99-1.2 5.48-2.75 11.62-4.65 17.47-1.89 5.9-4.18 11.79-7.03 17.63-5.66 11.56-13.48 23.4-25.66 32.67-6.01 4.58-13.06 8.34-20.53 10.7-7.47 2.27-15.13 3.19-22.35 3.16-14.34-.35-26.41-3.75-36.88-6.65-10.58-3-19.8-5.55-27.82-6.35-3.93-.33-7.49-.28-10.78.22-3.34.66-6.69 1.52-9.95 3.1-6.52 3.05-12.85 7.97-18.13 14.27-5.37 6.18-9.64 13.71-12.64 21.5-2.94 7.86-4.87 16.96-5.85 26.21-1.96 18.67-.35 39.12 1.51 60.29 1.86 20.14 5.44 41.29 8.48 62.76 3.07 21.52 5.92 43.52 6.5 66.63.2 11.51-.3 23.7-2.26 35.78-1.92 12-5.03 23.76-9.32 35.15-8.54 22.71-22.02 44.25-41.28 61.21-9.61 8.43-20.71 15.56-32.83 20.6-12.22 5.23-24.56 7.66-35.69 9.49-11.21 1.84-21.57 3.06-30.73 5.08-9.21 1.94-16.91 4.75-23.13 8.66-12.55 7.83-20.55 22.33-24.81 40.35-4.29 17.97-5.03 38.22-4.79 58.98v.13c.01.63-.02 1.28-.07 1.9-1.13 12.09-3.02 24.45-7.19 37.22-2.21 6.4-4.82 12.88-8.84 19.31-3.79 6.4-9.06 12.79-15.88 17.99-6.73 5.23-15.04 9.02-23.34 10.71-8.35 1.77-16.4 1.48-23.73.38-14.76-2.31-26.97-7.88-38.02-14.16-11.1-6.32-20.88-13.78-30.11-21.72-4.55-4.04-9-8.16-13.21-12.51-2.14-2.14-4.18-4.38-6.23-6.61l-.77-.84c-.23-.24-.21-.17-.33-.27-.16-.13-.31-.27-.46-.42-.24-.38-.59-.51-.88-.7-1.16-.79-2.41-1.19-3.98-1.21-1.54-.02-3.29.49-4.57 1.31-1.31.84-2.08 1.8-2.51 2.85-.21.21-.21.55-.27.87-.16.26-.19.63-.17 1.04-.01.2-.04.39-.09.58-.04.14-.03.1-.03.37l.02 1 .06 4.03c.17 10.9.63 23.13-1.4 36.61-1.06 6.74-2.82 13.78-5.66 20.69-2.93 6.86-6.62 13.09-10.63 18.64-8.1 10.94-16.9 19.26-24.49 26.86-7.62 7.56-14.04 14.52-18.06 21.28-7.87 12.87-8.49 29.76-3.09 47.08 2.67 8.59 6.62 17.12 11.6 25.09 4.89 7.84 11.06 15.54 17.91 23.2 13.7 15.27 30.11 29.93 46.04 47.16 7.92 8.59 15.73 18.08 22.65 28.19 6.92 10.08 13.01 20.7 18.23 31.72 10.37 22.07 17.36 45.77 20.11 70.08 2.82 24.21 1.91 49.99-6.79 74.95-4.26 12.46-10.92 24.66-19.8 35.4-2.39 2.56-4.57 5.29-7.22 7.62l-3.86 3.58-4.4 3.42c-5.91 4.53-12.66 7.95-19.58 10.63-14.01 4.99-29.18 6.28-43.35 3.34-14.19-2.86-27.44-9.4-38.12-18.86-5.47-4.59-10.03-10.13-14.05-15.92-2.99-4.6-5.88-9.05-8.87-13.42-6-8.68-12.06-16.99-18.67-24.39-13.14-14.97-28.81-25.44-48.22-29.24l-.25-.05c-5.64-1.1-9.31-6.57-8.21-12.21.97-4.91 5.26-8.34 10.08-8.4z"
                  fill="#6c0000"
                  transform="matrix(.26665043777 -.05980241862 .06035213085 .26422195283 6426.3105766859 17990.647476612)"/>
            <path d="m2024.88 1234.41c-26.62 91.53-135.61 140.31-243.44 108.95s-173.66-130.97-147.05-222.5c26.62-91.53 135.6-140.306 243.43-108.95 107.83 31.35 173.67 130.97 147.06 222.5z"
                  fill="#fd0017"
                  transform="matrix(.26665043777 -.05980241862 .06035213085 .26422195283 6426.3105766859 17990.647476612)"/>
            <path d="m1647.11 1173.67c-1.35-15.88.1-31.96 4.69-47.75 3.73-12.81 9.3-24.68 16.44-35.48 7.71 1.37 15.47 2.79 23.25 4.26-19.37 18.38-33.89 41.22-41.56 67.6-1.1 3.78-2.04 7.57-2.82 11.37z"
                  fill="#ff959a"
                  transform="matrix(.26665043777 -.05980241862 .06035213085 .26422195283 6426.3105766859 17990.647476612)"/>
            <path d="m1851.27 1423.58c-21.52 0-43.71-3.06-65.86-9.5-85.27-24.83-144.33-92.3-152.08-164.74 27.59 50.73 78.35 92.62 143.05 111.43 23.73 6.9 47.53 10.17 70.66 10.17 75.5 0 143.77-34.91 178.32-92.64 2.78 1.04 5.53 2.09 8.3 3.14-.95 7.92-2.56 15.83-4.84 23.68-21.16 72.71-94.3 118.46-177.55 118.46z"
                  fill="#d68600"
                  transform="matrix(.26665043777 -.05980241862 .06035213085 .26422195283 6426.3105766859 17990.647476612)"/>
            <path d="m2033.66 1281.44c-2.77-1.05-5.52-2.1-8.3-3.14 3.46-5.77 6.57-11.78 9.33-17.99.15 7.03-.18 14.09-1.03 21.13z"
                  fill="#b75d00"
                  transform="matrix(.26665043777 -.05980241862 .06035213085 .26422195283 6426.3105766859 17990.647476612)"/>
            <path d="m1847.3 1334.72c-19.85 0-40.35-2.82-60.79-8.77-77.79-22.62-131.9-83.77-139.07-148.91 26.03 43.72 71.43 79.61 128.68 96.25 22.16 6.44 44.37 9.5 65.89 9.5 75.52 0 142.7-37.62 170.32-98.92 1.03 15.14-.49 30.44-4.86 45.48-18.83 64.73-84.84 105.37-160.17 105.37z"
                  fill="#d2000e"
                  transform="matrix(.26665043777 -.05980241862 .06035213085 .26422195283 6426.3105766859 17990.647476612)"/>
            <path d="m2024.88 1234.41h.05zm-212.91-213.86c-75.33 0-141.34 40.64-160.17 105.37-23.78 81.78 36.65 171.52 134.71 200.03 98.05 28.52 197.17-14.82 220.96-96.6 23.78-81.79-36.65-171.52-134.71-200.03-20.44-5.95-40.94-8.77-60.79-8.77zm35.07 350.39c-23.13 0-46.93-3.27-70.66-10.17-117.26-34.1-188.76-143.99-159.4-244.97 29.37-100.98 148.64-155.4 265.91-121.301 117.25 34.091 188.76 143.991 159.4 244.971-23.43 80.55-104.07 131.47-195.25 131.47z"
                  fill="#6c0000"
                  transform="matrix(.26665043777 -.05980241862 .06035213085 .26422195283 6426.3105766859 17990.647476612)"/>
            <path d="m1491.05 2388.26c-26.61 91.53-135.6 140.31-243.43 108.95-107.83-31.35-173.67-130.97-147.05-222.5 26.61-91.53 135.6-140.31 243.43-108.95 107.83 31.35 173.67 130.97 147.05 222.5z"
                  fill="#fd0017"
                  transform="matrix(.26665043777 -.05980241862 .06035213085 .26422195283 6426.3105766859 17990.647476612)"/>
            <path d="m1325.99 2583.33c-16.14 0-32.64-1.72-49.23-5.29-7.38-25.74-14.24-51.96-20.54-78.5 19.29 4.85 38.55 7.17 57.29 7.17 7.17 0 14.26-.34 21.25-1 67.15-6.38 124.92-42.95 149.61-99.08 2.6-5.91 4.84-12.04 6.68-18.37 2.66-9.13 4.39-18.34 5.26-27.55 13.99 33.04 17.35 69.17 7.16 104.13-21.11 72.74-94.26 118.49-177.48 118.49z"
                  fill="#d68600"
                  transform="matrix(.26665043777 -.05980241862 .06035213085 .26422195283 6426.3105766859 17990.647476612)"/>
            <path d="m1276.76 2578.04c-5.56-1.2-11.13-2.61-16.7-4.23-9.8-2.86-19.26-6.28-28.32-10.2-7.57-26.37-14.59-53.2-21.06-80.51 11.65 5.6 23.99 10.35 36.94 14.11 2.87.84 5.73 1.61 8.6 2.33 6.3 26.54 13.16 52.76 20.54 78.5z"
                  fill="#d5a167"
                  transform="matrix(.26665043777 -.05980241862 .06035213085 .26422195283 6426.3105766859 17990.647476612)"/>
            <path d="m1231.74 2563.61c-9.2-3.98-18-8.49-26.35-13.47-7.33-26.69-14.04-53.78-20.18-81.33 8.06 5.22 16.56 10 25.47 14.29 6.47 27.31 13.49 54.14 21.06 80.51z"
                  fill="#6c0000"
                  transform="matrix(.26665043777 -.05980241862 .06035213085 .26422195283 6426.3105766859 17990.647476612)"/>
            <path d="m1313.51 2506.71c-18.74 0-38-2.32-57.29-7.17-2.87-.72-5.73-1.49-8.6-2.33-12.95-3.76-25.29-8.51-36.94-14.11-8.91-4.29-17.41-9.07-25.47-14.29-.01-.01-.01-.02-.01-.03 2.1 1.35 4.23 2.69 6.38 3.98 16.96 10.25 35.76 18.55 56.05 24.43 22.17 6.45 44.38 9.52 65.92 9.52h.05c7.14 0 14.2-.34 21.16-1-6.99.66-14.08 1-21.25 1zm170.86-100.08c2.45-5.57 4.58-11.34 6.35-17.29l.01-.01c.1-.35.2-.7.31-1.05 1.59-5.46 2.85-10.94 3.78-16.42.64-3.72 1.13-7.45 1.48-11.18 0 .01 0 .02.01.03-.87 9.21-2.6 18.42-5.26 27.55-1.84 6.33-4.08 12.46-6.68 18.37z"
                  fill="#d2000e"
                  transform="matrix(.26665043777 -.05980241862 .06035213085 .26422195283 6426.3105766859 17990.647476612)"/>
            <path d="m1336.39 2505.55c66.13-6.8 122.94-42.91 147.64-98.14-24.68 55.24-81.5 91.35-147.64 98.14zm153.59-204.74c-.01-.02-.02-.04-.02-.06 0 .02.01.04.02.06zm-.08-.25c-.02-.07-.04-.14-.06-.21.02.07.04.14.06.21zm-.07-.24c-4.29-13.9-10.45-27.39-18.28-40.19-4.48-7.35-9.51-14.46-15.06-21.29v-.02c15.23 18.77 26.59 39.64 33.34 61.5z"
                  fill="#d68600"
                  transform="matrix(.26665043777 -.05980241862 .06035213085 .26422195283 6426.3105766859 17990.647476612)"/>
            <path d="m1313.6 2506.71h-.05c-21.53 0-43.76-3.07-65.92-9.52-20.28-5.9-39.07-14.21-56.05-24.43-2.16-1.3-4.29-2.64-6.38-4v.02c-36.65-23.75-64.11-56.58-78.71-92.93-1-9.16-1.19-18.39-.51-27.62 26.12 27.72 61.27 49.76 102.56 61.75 22.17 6.46 44.41 9.52 65.95 9.52 83.25 0 156.35-45.74 177.51-118.48 2.95-10.09 4.75-20.28 5.5-30.47 16.8 17.84 29.88 38.05 38.48 59.49-2.67-24.35-11.12-48.13-24.43-69.91 7.83 12.8 13.99 26.29 18.28 40.19 0 .01 0 .02.01.03.02.07.04.14.06.21.02.06.04.13.06.19 0 .02.01.04.02.06 5.93 19.44 8.21 39.67 6.32 59.87-.01-.02-.02-.05-.04-.07-.32 3.75-.81 7.5-1.44 11.25-.94 5.49-2.2 10.97-3.78 16.42-.11.35-.21.7-.31 1.05l-.01.01c-1.85 6.23-4.1 12.26-6.69 18.07-24.7 55.23-81.51 91.34-147.64 98.14-7.49.77-15.09 1.16-22.79 1.16z"
                  fill="#d2000e"
                  transform="matrix(.26665043777 -.05980241862 .06035213085 .26422195283 6426.3105766859 17990.647476612)"/>
            <path d="m1313.56 2506.71h.04zm-.01 0c-21.54 0-43.75-3.07-65.92-9.52 22.16 6.45 44.39 9.52 65.92 9.52zm-121.97-33.95c-2.15-1.29-4.28-2.63-6.38-3.98v-.02c2.09 1.36 4.22 2.7 6.38 4zm299.14-83.42.01-.01zm4.1-17.48c.63-3.75 1.12-7.5 1.44-11.25.02.02.03.05.04.07-.35 3.73-.84 7.46-1.48 11.18z"
                  fill="#b30007"
                  transform="matrix(.26665043777 -.05980241862 .06035213085 .26422195283 6426.3105766859 17990.647476612)"/>
            <path d="m1106.49 2375.89c-12.97-32.27-15.8-67.29-5.93-101.18.07-.21.13-.42.19-.63-.06.21-.12.42-.18.63-9.86 33.91-7.03 68.93 5.92 101.18z"
                  fill="#82f9fe"
                  transform="matrix(.26665043777 -.05980241862 .06035213085 .26422195283 6426.3105766859 17990.647476612)"/>
            <path d="m1456.49 2238.86c-26.85-33.06-65.72-59.5-112.49-73.1-16.03-4.66-32.07-7.55-47.87-8.79 15.79 1.24 31.83 4.13 47.84 8.78 46.79 13.59 85.67 40.03 112.52 73.09z"
                  fill="#ffe793"
                  transform="matrix(.26665043777 -.05980241862 .06035213085 .26422195283 6426.3105766859 17990.647476612)"/>
            <path d="m1106.49 2375.89c-12.95-32.25-15.78-67.27-5.92-101.18.06-.21.12-.42.18-.63 21.4-72.35 94.36-117.82 177.37-117.82 5.96 0 11.96.23 18.01.71 15.8 1.24 31.84 4.13 47.87 8.79 46.77 13.6 85.64 40.04 112.49 73.1 1.42 10.49 1.79 21.09 1.01 31.69-26.14-27.75-61.3-49.78-102.61-61.81-22.14-6.43-44.35-9.49-65.86-9.49-83.26 0-156.4 45.74-177.55 118.46-2.95 10.12-4.75 20.32-5.5 30.52-3.46-3.68-6.77-7.45-9.9-11.32 1.81 13.25 5.33 26.31 10.41 38.94z"
                  fill="#ffa1a6"
                  transform="matrix(.26665043777 -.05980241862 .06035213085 .26422195283 6426.3105766859 17990.647476612)"/>
            <path d="m1106.49 2375.85c-5.08-12.63-8.6-25.69-10.41-38.94 3.13 3.87 6.44 7.64 9.9 11.32-.68 9.23-.49 18.46.51 27.62z"
                  fill="#f19ea2"
                  transform="matrix(.26665043777 -.05980241862 .06035213085 .26422195283 6426.3105766859 17990.647476612)"/>
            <path d="m1471.55 2260.13c-4.48-7.34-9.51-14.45-15.06-21.27v-.02c5.55 6.83 10.58 13.94 15.06 21.29z"
                  fill="#efcf95"
                  transform="matrix(.26665043777 -.05980241862 .06035213085 .26422195283 6426.3105766859 17990.647476612)"/>
            <path d="m1495.98 2330.04c-8.6-21.44-21.68-41.65-38.48-59.49.78-10.6.41-21.2-1.01-31.69 5.55 6.82 10.58 13.93 15.06 21.27 13.31 21.78 21.76 45.56 24.43 69.91z"
                  fill="#f19ea2"
                  transform="matrix(.26665043777 -.05980241862 .06035213085 .26422195283 6426.3105766859 17990.647476612)"/>
            <path d="m1277.94 2174.34c-27.59 0-54.41 5.49-78.71 16.36-41.04 18.37-69.89 50-81.25 89.07s-3.97 81.25 20.82 118.76c25.41 38.44 65.85 67.3 113.88 81.27 48.03 13.96 97.65 11.29 139.7-7.53 41.04-18.37 69.9-50 81.26-89.07s3.97-81.25-20.83-118.76c-25.4-38.44-65.85-67.3-113.87-81.27-20.28-5.9-40.85-8.83-61-8.83zm35.73 350.54c-23.56 0-47.53-3.4-71.12-10.26-56.26-16.36-103.86-50.49-134-96.1-30.76-46.54-39.77-99.41-25.39-148.87s50.34-89.25 101.26-112.05c49.89-22.32 108.36-25.61 164.64-9.25 56.27 16.36 103.87 50.49 134.01 96.1 30.75 46.54 39.77 99.41 25.39 148.87-14.38 49.47-50.34 89.26-101.26 112.05-28.99 12.97-60.87 19.51-93.53 19.51z"
                  fill="#6c0000"
                  transform="matrix(.26665043777 -.05980241862 .06035213085 .26422195283 6426.3105766859 17990.647476612)"/>
            <path d="m2317.26 1669.07c-21.98 75.59-111.99 115.87-201.04 89.98-89.05-25.9-143.42-108.17-121.44-183.75 21.98-75.59 111.99-115.88 201.04-89.98 89.05 25.89 143.42 108.16 121.44 183.75z"
                  fill="#fd0017"
                  transform="matrix(.26665043777 -.05980241862 .06035213085 .26422195283 6426.3105766859 17990.647476612)"/>
            <path d="m2171.96 1854.53c-17.78 0-36.12-2.52-54.42-7.84-89.03-25.93-143.42-108.21-121.41-183.75.73-2.43 1.45-4.81 2.36-7.12 16.55 44.09 55.95 82.3 108.74 100.38.06.02.12.04.18.06.03.01.06.02.08.03 2.79.95 5.63 1.85 8.5 2.69.08.02.15.04.23.07.1.02.19.05.28.08 3.77 1.09 7.54 2.06 11.3 2.91 14.43 3.28 28.81 4.85 42.84 4.85 35.21 0 68.23-9.9 94.42-27.64 22.84-15.46 40.49-36.88 49.83-62.87 9.7 25.74 11.54 53.42 3.69 80.3-17.45 60.07-77.85 97.85-146.62 97.85z"
                  fill="#d68600"
                  transform="matrix(.26665043777 -.05980241862 .06035213085 .26422195283 6426.3105766859 17990.647476612)"/>
            <path d="m2170.64 1766.89c-14.03 0-28.41-1.57-42.84-4.85 14.43 3.28 28.79 4.85 42.82 4.85 4.13 0 8.21-.14 12.27-.41.25-.01.5-.03.75-.05h.02c.12-.01.23-.01.35-.02.02 0 .02 0 .04-.01.11 0 .22-.01.33-.02h.06c.11-.01.21-.02.32-.03h.07l.3-.03h.08c.1-.01.21-.02.31-.03h.08c.1-.01.19-.02.29-.03.03 0 .07 0 .1-.01.09 0 .19-.01.28-.02.04 0 .07-.01.1-.01.1-.01.19-.01.29-.02.03-.01.06-.01.1-.01l.27-.03c.04 0 .08 0 .12-.01.09 0 .18-.01.27-.02.03 0 .08-.01.11-.01.1-.01.18-.02.27-.03.04 0 .07 0 .1-.01.09 0 .19-.01.28-.02.04-.01.08-.01.11-.01l.27-.03c.05 0 .09-.01.13-.01.09-.01.17-.02.25-.03.06 0 .12-.01.17-.01.12-.01.23-.03.35-.04.08-.01.16-.01.24-.02.06-.01.12-.02.18-.02.07-.01.14-.02.21-.02.04-.01.1-.01.14-.02.08-.01.17-.02.25-.03.04 0 .09-.01.14-.01.08-.01.16-.02.24-.03.05 0 .1-.01.14-.01.08-.01.17-.02.25-.03.04-.01.09-.01.14-.02.08-.01.17-.02.25-.02.03-.01.08-.01.12-.02.09-.01.17-.02.26-.03.04 0 .08-.01.12-.01l.27-.03c.04-.01.08-.01.12-.02.09-.01.17-.02.26-.03.04-.01.09-.01.13-.02.08-.01.17-.02.26-.03.04 0 .07-.01.11-.01.1-.01.18-.02.28-.04.03 0 .07-.01.1-.01.1-.01.19-.02.29-.04.03 0 .06 0 .09-.01.1-.01.19-.02.29-.04.03 0 .07 0 .1-.01.1-.01.2-.02.3-.04.02 0 .05 0 .08-.01.1-.01.2-.03.31-.04.02 0 .04-.01.07-.01.1-.01.21-.03.32-.04.02 0 .04-.01.06-.01.11-.02.22-.03.32-.05h.07c.11-.02.23-.04.34-.05.01 0 .02-.01.03-.01.13-.01.25-.03.37-.05h.01c4.78-.69 9.47-1.56 14.1-2.61h.02c.11-.03.23-.06.35-.08.01-.01.01-.01.03-.01.11-.03.22-.05.34-.08.01 0 .02 0 .03-.01.12-.02.22-.05.34-.08.01 0 .02 0 .04-.01.11-.02.22-.05.33-.07.02-.01.03-.01.04-.01.11-.03.22-.05.33-.08.01 0 .03-.01.05-.01.1-.03.21-.05.32-.08.02 0 .03-.01.05-.01.1-.03.21-.05.31-.08.02 0 .04-.01.06-.01.11-.03.21-.05.31-.08.03 0 .04-.01.06-.01.1-.03.2-.05.3-.08.02 0 .06-.01.08-.02.1-.02.19-.04.29-.07.02 0 .05-.01.08-.02.09-.02.19-.05.28-.07.03-.01.05-.01.08-.02.11-.03.21-.05.32-.08.01 0 .03-.01.05-.01.1-.03.2-.06.3-.08.02-.01.04-.01.07-.02.11-.03.21-.05.32-.08.02-.01.03-.01.04-.01.12-.03.23-.06.35-.09.01-.01.03-.01.04-.02.12-.03.23-.06.34-.09.07-.01.13-.03.2-.05.05-.01.1-.03.16-.04.08-.02.16-.04.24-.06.04-.02.08-.03.11-.04.09-.02.18-.04.27-.07.02 0 .06-.01.09-.02.08-.02.17-.05.26-.07.03-.01.07-.02.1-.03.09-.03.19-.05.28-.08.02 0 .04-.01.07-.02.09-.02.19-.05.29-.08.02 0 .04-.01.06-.01.11-.03.2-.06.31-.09.01-.01.02-.01.04-.01.11-.03.21-.06.32-.09.01-.01.02-.01.03-.01 16.55-4.7 31.91-11.77 45.46-20.94-26.19 17.74-59.21 27.64-94.42 27.64zm-63.15-10.6c-.02-.01-.05-.02-.08-.03.03.01.05.02.08.03zm-.26-.09c-52.79-18.08-92.19-56.29-108.74-100.38.01-.01.01-.02.01-.03 12.8 34.08 39.24 64.66 74.97 85.15.02.01.05.02.07.04l.12.06c10.43 5.97 21.66 11.08 33.57 15.16z"
                  fill="#d2000e"
                  transform="matrix(.26665043777 -.05980241862 .06035213085 .26422195283 6426.3105766859 17990.647476612)"/>
            <path d="m2125.29 1761.46c-2.93-.71-5.86-1.48-8.79-2.33-.09-.03-.19-.06-.28-.08-.08-.03-.15-.05-.23-.07-.78-.23-1.57-.47-2.35-.7.86.26 1.72.51 2.58.77 3.02.87 6.05 1.68 9.07 2.41zm-11.69-3.19c-.04-.02-.08-.03-.12-.04.04.01.08.02.12.04zm201.29-81.89v-.01c.86-2.4 1.65-4.83 2.37-7.3.84-2.88 1.56-5.77 2.18-8.66-.62 2.9-1.34 5.79-2.18 8.68-.72 2.46-1.51 4.9-2.37 7.29zm4.55-15.98c.01-.03.01-.05.02-.08-.01.03-.01.05-.02.08z"
                  fill="#d68600"
                  transform="matrix(.26665043777 -.05980241862 .06035213085 .26422195283 6426.3105766859 17990.647476612)"/>
            <path d="m2170.62 1766.89c-14.84 0-30.06-1.76-45.33-5.43-3.02-.73-6.05-1.54-9.07-2.41-.86-.26-1.72-.51-2.58-.77-.02-.01-.02-.01-.04-.01-.04-.02-.08-.03-.12-.04-14.25-4.37-27.58-10.19-39.82-17.19-.05-.02-.08-.04-.12-.06-.02-.02-.05-.03-.07-.04-35.75-20.51-62.19-51.14-74.93-85.24-.01.03-.02.06-.04.09-2.56-6.84-4.58-13.82-6.01-20.88.78-5.32 1.93-10.65 3.41-15.94 21.23 37.22 59.34 67.88 107.69 81.94 18.29 5.31 36.64 7.84 54.42 7.84 68.77 0 129.17-37.78 146.62-97.85.09-.3.17-.6.26-.9 7.62 13.34 13.06 27.52 16.03 42.07-.39 2.75-.88 5.5-1.46 8.25-.01.03-.01.05-.02.08v.01c-.62 2.89-1.34 5.78-2.18 8.66-.72 2.47-1.51 4.9-2.37 7.3-.01-.03-.02-.06-.04-.09-14.82 41.45-50.75 71.28-95.25 83.91-.01 0-.03.01-.03.01-.11.03-.22.06-.32.09-.01 0-.03.01-.04.01-.1.03-.21.06-.31.09-.02 0-.04.01-.06.01-.1.03-.2.06-.29.08-.03.01-.05.02-.07.02-.1.03-.19.05-.28.08-.04.01-.07.02-.1.03-.09.02-.17.04-.26.07-.04.01-.06.01-.09.02-.09.03-.18.05-.27.07-.03.01-.07.02-.11.04-.09.02-.16.04-.24.06-.05.01-.11.03-.16.04-.07.02-.13.04-.2.05-.11.03-.23.06-.34.09-.01.01-.03.01-.04.02-.12.03-.23.06-.35.09-.01 0-.03 0-.04.01-.11.02-.21.05-.32.08-.02.01-.05.01-.07.02-.1.02-.2.05-.3.08-.02 0-.04 0-.05.01-.11.03-.21.05-.32.08-.02 0-.05.01-.08.02-.09.02-.19.05-.28.07-.03.01-.06.02-.08.02-.1.03-.19.05-.29.07-.02.01-.06.02-.08.02-.1.03-.2.05-.3.08-.02 0-.04.01-.06.01-.1.03-.2.05-.31.08-.02 0-.04.01-.06.01-.1.03-.21.05-.31.08-.02 0-.04.01-.05.01-.11.03-.22.05-.32.08-.02 0-.04.01-.05.01-.11.02-.22.05-.33.08-.01 0-.02 0-.04.01-.11.02-.22.05-.33.07-.01.01-.03.01-.04.01-.11.03-.22.06-.34.08-.01 0-.02.01-.03.01-.11.03-.23.05-.34.08-.01 0-.02 0-.03.01-.12.02-.24.05-.35.08h-.02c-4.62 1.05-9.33 1.92-14.1 2.61h-.01c-.12.02-.24.04-.37.05-.01 0-.02.01-.03.01-.12.01-.23.03-.34.05h-.07c-.1.02-.21.03-.32.05-.02 0-.04 0-.06.01-.11.01-.21.03-.32.04-.02 0-.05.01-.07.01-.1.01-.21.03-.31.04-.03.01-.06.01-.08.01-.1.02-.2.03-.3.04-.03.01-.07.01-.1.01-.09.02-.19.03-.29.04-.03.01-.06.01-.09.01-.1.02-.19.03-.29.04-.03 0-.07.01-.1.01-.09.02-.18.03-.28.04-.04 0-.07.01-.11.01-.09.01-.17.02-.26.03-.05.01-.09.01-.13.02-.09.01-.17.02-.26.03-.04.01-.08.01-.12.02-.09.01-.18.02-.27.03-.04 0-.07.01-.12.01-.09.01-.17.02-.26.03-.04.01-.08.01-.12.02-.09.01-.17.01-.25.02-.05.01-.1.01-.14.02-.09.01-.17.02-.25.03-.05 0-.09.01-.14.01-.08.01-.16.02-.24.03-.05 0-.09.01-.14.01-.09.01-.16.02-.25.03-.04.01-.09.01-.14.02-.07 0-.14.01-.21.02-.06 0-.12.01-.18.02-.08.01-.16.01-.24.02-.12.01-.23.03-.35.04-.05 0-.11.01-.17.01-.08.01-.16.02-.25.03-.04 0-.09.01-.13.01-.09.01-.18.02-.27.03-.04 0-.07 0-.11.01-.09.01-.18.02-.28.02-.03.01-.07.01-.1.01-.09.01-.18.02-.27.03-.03 0-.08.01-.11.01-.09.01-.18.02-.27.02-.04.01-.07.01-.12.01-.09.01-.18.02-.27.03-.03 0-.07 0-.1.01-.1.01-.19.01-.29.02-.03 0-.06.01-.1.01-.09.01-.18.02-.28.02-.04.01-.06.01-.1.01-.1.01-.19.02-.29.03h-.08c-.1.01-.21.02-.31.03h-.08c-.1.01-.2.02-.3.03h-.07c-.11.01-.21.02-.32.03h-.06c-.11.01-.22.02-.33.02-.01.01-.03.01-.04.01-.12.01-.24.01-.35.02h-.02c-.25.02-.5.04-.75.05-4.05.27-8.14.41-12.27.41z"
                  fill="#d2000e"
                  transform="matrix(.26665043777 -.05980241862 .06035213085 .26422195283 6426.3105766859 17990.647476612)"/>
            <path d="m2127.8 1762.04c-3.76-.85-7.53-1.82-11.3-2.91 2.93.85 5.86 1.62 8.79 2.33.84.2 1.67.39 2.51.58zm-11.58-2.99c-.08-.03-.15-.05-.23-.07.08.02.15.04.23.07zm148.84-19.8c22.83-15.47 40.48-36.89 49.83-62.88v.01c-9.34 25.99-26.99 47.41-49.83 62.87z"
                  fill="#b75d00"
                  transform="matrix(.26665043777 -.05980241862 .06035213085 .26422195283 6426.3105766859 17990.647476612)"/>
            <path d="m2170.62 1766.89c-14.03 0-28.39-1.57-42.82-4.85-.84-.19-1.67-.38-2.51-.58 15.27 3.67 30.49 5.43 45.33 5.43 4.13 0 8.22-.14 12.27-.41-4.06.27-8.14.41-12.27.41zm12.27-.41c.25-.01.5-.03.75-.05-.25.02-.5.04-.75.05zm.77-.05c.11-.01.23-.01.35-.02-.12.01-.23.01-.35.02zm.39-.03c.11 0 .22-.01.33-.02-.11.01-.22.02-.33.02zm.39-.02c.11-.01.21-.02.32-.03-.11.01-.21.02-.32.03zm.39-.03.3-.03c-.1.01-.2.02-.3.03zm.38-.03c.1-.01.21-.02.31-.03-.1.01-.21.02-.31.03zm.39-.03c.1-.01.19-.02.29-.03-.1.01-.19.02-.29.03zm.39-.04c.1 0 .19-.01.28-.02-.09.01-.19.02-.28.02zm.38-.03c.1-.01.19-.01.29-.02-.1.01-.19.01-.29.02zm.39-.03.27-.03c-.09.01-.18.02-.27.03zm.39-.04c.09 0 .18-.01.27-.02-.09.01-.18.02-.27.02zm.38-.03.27-.03c-.09.01-.17.02-.27.03zm.37-.04c.1 0 .19-.01.28-.02-.09.01-.19.02-.28.02zm.39-.03.27-.03c-.09.01-.18.02-.27.03zm.4-.04c.09-.01.17-.02.25-.03-.08.01-.16.02-.25.03zm.42-.04c.12-.01.23-.03.35-.04-.12.01-.23.03-.35.04zm.59-.06c.06-.01.12-.02.18-.02-.06 0-.12.01-.18.02zm.39-.04c.05-.01.1-.01.14-.02-.04.01-.1.01-.14.02zm.39-.05c.05 0 .09-.01.14-.01-.05 0-.1.01-.14.01zm.38-.04c.05 0 .09-.01.14-.01-.04 0-.09.01-.14.01zm.39-.04c.04-.01.09-.01.14-.02-.05.01-.1.01-.14.02zm.39-.04c.04-.01.08-.01.12-.02-.04.01-.09.01-.12.02zm.38-.05c.05 0 .08-.01.12-.01-.04 0-.08.01-.12.01zm.39-.04c.04-.01.08-.01.12-.02-.04.01-.08.01-.12.02zm.38-.05c.04-.01.08-.01.13-.02-.04.01-.09.01-.13.02zm.39-.05c.04 0 .07-.01.11-.01-.04 0-.07.01-.11.01zm.39-.05c.03 0 .07-.01.1-.01-.03 0-.07.01-.1.01zm.39-.05c.03 0 .06 0 .09-.01-.03.01-.06.01-.09.01zm.38-.05c.03 0 .07 0 .1-.01-.03.01-.07.01-.1.01zm.4-.05c.02 0 .05 0 .08-.01-.03.01-.06.01-.08.01zm.39-.05c.02 0 .05-.01.07-.01-.03 0-.05.01-.07.01zm.39-.05c.02-.01.04-.01.06-.01-.02 0-.04.01-.06.01zm.38-.06h.07zm.41-.05c.01 0 .02-.01.03-.01-.01 0-.02.01-.03.01zm.4-.06h.01zm14.11-2.61h.02zm.37-.08c.01-.01.02-.01.03-.01-.02 0-.02 0-.03.01zm.37-.09c.01 0 .02-.01.03-.01-.01.01-.02.01-.03.01zm.37-.09c.01 0 .03 0 .04-.01-.02.01-.03.01-.04.01zm.37-.08c.02-.01.03-.01.04-.01-.01 0-.02 0-.04.01zm.37-.09c.01 0 .03-.01.05-.01-.02 0-.04.01-.05.01zm.37-.09c.01 0 .03-.01.05-.01-.02 0-.03.01-.05.01zm.36-.09c.02 0 .04-.01.06-.01-.02 0-.04.01-.06.01zm.37-.09c.02 0 .04-.01.06-.01-.02 0-.03.01-.06.01zm.36-.09c.02 0 .06-.01.08-.02-.02.01-.06.02-.08.02zm.37-.09c.02 0 .05-.01.08-.02-.03.01-.06.02-.08.02zm.36-.09c.03-.01.06-.02.08-.02-.03.01-.05.01-.08.02zm.4-.1c.01-.01.03-.01.05-.01-.02 0-.04.01-.05.01zm.35-.09c.02-.01.05-.01.07-.02-.03.01-.05.01-.07.02zm.39-.1c.01-.01.03-.01.04-.01-.01 0-.02 0-.04.01zm.39-.1c.01-.01.03-.01.04-.02-.01.01-.03.01-.04.02zm.38-.11c.07-.01.13-.03.2-.05-.07.02-.13.04-.2.05zm.36-.09c.08-.02.15-.04.24-.06-.08.02-.16.04-.24.06zm.35-.1c.09-.02.18-.04.27-.07-.09.03-.18.05-.27.07zm.36-.09c.09-.03.17-.05.26-.07-.09.02-.18.05-.26.07zm.36-.1c.09-.03.18-.05.28-.08-.09.03-.19.05-.28.08zm.35-.1c.09-.02.19-.05.29-.08-.1.03-.2.06-.29.08zm.35-.09c.1-.03.21-.06.31-.09-.11.03-.2.06-.31.09zm.35-.1c.1-.03.21-.06.32-.09-.11.03-.21.06-.32.09zm.35-.1c44.5-12.63 80.43-42.46 95.25-83.91.02.03.03.06.04.09-9.35 25.99-27 47.41-49.83 62.88-13.55 9.17-28.91 16.24-45.46 20.94zm-145.94-19.15c-.04-.02-.08-.04-.12-.06.04.02.07.04.12.06zm-.19-.1c-35.73-20.49-62.17-51.07-74.97-85.15.02-.03.03-.06.04-.09 12.74 34.1 39.18 64.73 74.93 85.24z"
                  fill="#b30007"
                  transform="matrix(.26665043777 -.05980241862 .06035213085 .26422195283 6426.3105766859 17990.647476612)"/>
            <path d="m2320.94 1652.19c-.01-.04-.01-.07-.02-.11 3.05-21.45.29-43.06-7.33-63.43-.01-.02-.02-.05-.03-.07s-.01-.02-.02-.04c-1.22-3.26-2.57-6.49-4.03-9.68v.01c-8.25-17.89-20.29-34.58-35.47-49.07 34.86 33.26 53.2 78.15 46.9 122.39zm-330.01-26.59c-2.15-16.64-1.03-33.64 3.83-50.31 8.35-28.66 26.46-52.23 50.59-69.06-24.13 16.83-42.24 40.41-50.57 69.07-4.85 16.67-5.98 33.65-3.85 50.3zm283.07-95.84c-.03-.02-.06-.05-.09-.08.03.03.06.05.09.08z"
                  fill="#ffe485"
                  transform="matrix(.26665043777 -.05980241862 .06035213085 .26422195283 6426.3105766859 17990.647476612)"/>
            <path d="m2320.92 1652.08v-.01c3.03-21.45.28-43.06-7.33-63.42 7.62 20.37 10.38 41.98 7.33 63.43zm-328.43-17.16c-.64-3.09-1.16-6.2-1.56-9.32-2.13-16.65-1-33.63 3.85-50.3 8.33-28.66 26.44-52.24 50.57-69.07 26.43-18.42 60.1-28.75 96.03-28.75 17.78 0 36.12 2.53 54.42 7.85 30.74 8.93 57.35 24.58 78.11 44.35.03.03.06.06.09.08.01.01.03.03.04.04 15.18 14.49 27.22 31.18 35.47 49.07-.19 10.41-1.7 20.82-4.62 31.13-21.24-37.2-59.36-67.9-107.68-81.99-18.29-5.32-36.62-7.84-54.39-7.84-68.77 0-129.2 37.78-146.65 97.85-.09.32-.18.63-.27.95-2.17-3.8-4.16-7.66-5.97-11.59-.16 9.25.72 18.46 2.56 27.53zm321.07-46.34c-.01-.02-.01-.03-.02-.04.01.02.01.02.02.04z"
                  fill="#ff959a"
                  transform="matrix(.26665043777 -.05980241862 .06035213085 .26422195283 6426.3105766859 17990.647476612)"/>
            <path d="m2313.59 1588.65c-.01-.02-.02-.05-.03-.07.01.02.02.05.03.07zm-.05-.11c-1.22-3.25-2.57-6.48-4.03-9.67v-.01c1.46 3.19 2.81 6.42 4.03 9.68z"
                  fill="#eec988"
                  transform="matrix(.26665043777 -.05980241862 .06035213085 .26422195283 6426.3105766859 17990.647476612)"/>
            <path d="m2320.92 1652.07c-2.97-14.55-8.41-28.73-16.03-42.07 2.92-10.31 4.43-20.72 4.62-31.13 1.46 3.19 2.81 6.42 4.03 9.67.01.01.01.02.02.04s.02.05.03.07c7.61 20.36 10.36 41.97 7.33 63.42zm-328.43-17.16c-1.84-9.07-2.72-18.28-2.56-27.53 1.81 3.93 3.8 7.79 5.97 11.59-1.48 5.29-2.63 10.62-3.41 15.94z"
                  fill="#ee9296"
                  transform="matrix(.26665043777 -.05980241862 .06035213085 .26422195283 6426.3105766859 17990.647476612)"/>
            <path d="m2141.26 1495.56c-22.34 0-44.04 4.44-63.71 13.24-33.03 14.79-56.24 40.2-65.36 71.56s-3.16 65.26 16.8 95.45c20.57 31.12 53.34 54.5 92.3 65.83 38.93 11.31 79.14 9.17 113.19-6.08 33.04-14.78 56.25-40.19 65.36-71.55h.01c9.12-31.37 3.15-65.26-16.8-95.45-20.57-31.13-53.35-54.51-92.3-65.83-16.46-4.79-33.14-7.17-49.49-7.17zm29.51 289.5c-19.76 0-39.85-2.86-59.61-8.61-47.19-13.72-87.12-42.36-112.42-80.65-25.92-39.22-33.51-83.81-21.37-125.57 12.14-41.75 42.46-75.32 85.37-94.53 41.89-18.75 90.95-21.51 138.14-7.79s87.11 42.37 112.42 80.65c25.92 39.22 33.51 83.82 21.36 125.57h.01c-12.14 41.76-42.46 75.33-85.37 94.53-24.35 10.9-51.12 16.4-78.53 16.4z"
                  fill="#6c0000"
                  transform="matrix(.26665043777 -.05980241862 .06035213085 .26422195283 6426.3105766859 17990.647476612)"/>
            <path d="m3121.13 1461.7c-9.3 29.56-24.11 57.09-43.03 81.64-94.92 123.15-277.67 129.35-386.63 18.44-315.63-321.28-921.27-532.01-1330.41-516.85-200.24 1.09-246.82-346.733-27.65-444.237 373.45-91.135 1515.65 285.485 1765.22 693.437 30.75 50.29 40.19 111.36 22.5 167.57z"
                  fill="#e77e26"
                  transform="matrix(.26665043777 -.05980241862 .06035213085 .26422195283 6426.3105766859 17990.647476612)"/>
            <path d="m2878.75 1619.86c-64.5 0-126.74-26.02-172.5-72.6-150.49-153.18-376.94-291.5-637.63-389.47-229.34-86.19-469.25-134.34-666.11-134.34-14.19 0-28.16.26-41.88.76h-.53c-85.15 0-130.73-70.656-145.01-136.946-9.16-42.597-7.58-91.611 7.99-137.157 25.96 66.87 79.6 116.32 154.43 116.32 1.17 0 2.34-.012 3.52-.036 19.92-1.046 40.37-1.564 61.17-1.564 406.41 0 972.12 196.893 1277.06 497.903 51.37 50.7 118.28 75.93 184.52 75.93 70.18 0 139.63-28.32 189.09-84.64 5.99 9.92 11.15 20.27 15.44 30.91 2.47 23.81.22 47.79-6.94 70.55-8.37 26.6-21.73 51.91-39.68 75.21-40.98 53.16-100.83 84.67-168.55 88.74-4.81.29-9.6.43-14.39.43z"
                  fill="#c3581a"
                  transform="matrix(.26665043777 -.05980241862 .06035213085 .26422195283 6426.3105766859 17990.647476612)"/>
            <path d="m3092.87 1354.02c-.23-.38-.46-.76-.69-1.13-224.03-366.203-1167.39-707.195-1628.26-707.195-52.55 0-98.74 4.422-136.97 13.75-45.08 20.06-78.92 50.714-102.49 86.742 18.67-51.708 55.64-98.532 115.68-125.802 35.75-8.507 79.45-12.622 129.58-12.622 195.69 0 488.96 62.758 785.6 171.935 407.54 149.996 716.19 346.352 825.63 525.252 7.97 13.02 14.29 26.71 18.92 40.74-2.29 2.85-4.62 5.61-7 8.33z"
                  fill="#f6c5a0"
                  transform="matrix(.26665043777 -.05980241862 .06035213085 .26422195283 6426.3105766859 17990.647476612)"/>
            <path d="m3108.31 1384.93c-4.29-10.64-9.45-20.99-15.44-30.91 2.38-2.72 4.71-5.48 7-8.33 4.24 12.87 7.07 26.02 8.44 39.24z"
                  fill="#e5b49a"
                  transform="matrix(.26665043777 -.05980241862 .06035213085 .26422195283 6426.3105766859 17990.647476612)"/>
            <path d="m1402.51 1023.45c196.86 0 436.77 48.15 666.11 134.34 260.69 97.97 487.14 236.29 637.63 389.47 49.16 50.04 117.32 76.35 186.89 72.17 67.72-4.07 127.57-35.58 168.55-88.74 17.95-23.3 31.31-48.61 39.68-75.21l19.76 6.22-19.76-6.22c15.47-49.16 8.03-104.03-20.42-150.53-109.44-178.9-418.09-375.256-825.63-525.252-372.63-137.143-739.89-201.032-915.18-159.313-114.2 51.868-144.93 174.477-125.05 266.879 14.28 66.29 59.86 136.946 145.01 136.946h.53c13.72-.5 27.69-.76 41.88-.76zm1476.23 637.85c-75.61 0-148.47-30.46-202.05-85-327.52-333.39-937.5-524.67-1314.87-510.67-.39.02-.79.02-1.18.02h-.48c-90.59.01-163.37-66.483-185.58-169.665-23.4-108.703 13.69-253.4 150.41-314.226 1.13-.503 2.3-.903 3.51-1.196 184.74-45.083 554.16 17.82 941.13 160.247 191.68 70.546 368.49 154.372 511.28 242.415 161.73 99.705 274.57 200.675 335.39 300.095 34.7 56.73 43.67 124.02 24.6 184.6-9.84 31.27-25.44 60.9-46.39 88.07-47.69 61.88-120.19 100.08-198.88 104.81-5.64.33-11.28.5-16.89.5z"
                  fill="#6c0000"
                  transform="matrix(.26665043777 -.05980241862 .06035213085 .26422195283 6426.3105766859 17990.647476612)"/>
            <path d="m3095.63 1333.5c-11.97-19-26.49-36.07-43.6-49.69-17.07-13.64-36.68-23.77-57.63-29.59-41.89-11.82-88.67-6.05-128.22 14.04-19.78 9.96-38.04 23.2-52.93 39.47-14.93 16.25-26.26 35.23-34.72 55.16-8.53 19.97-13.96 41.23-16.51 63.52-2.74 22.33-2.1 45.48-.68 70.07l.02.22c.22 3.9-2.76 7.25-6.66 7.47-2.74.16-5.21-1.27-6.51-3.48-13.09-22.27-20.77-48.03-22.88-74.77-2.02-26.73 2.22-54.43 12.37-79.81 10.15-25.45 26.25-48.13 45.14-67.38 18.92-19.26 40.78-35.5 64.83-47.53 24.02-12.03 50.12-20.13 77.03-23.11 26.86-3.05 54.49-1.15 80.81 6.21 26.33 7.29 51.15 20.12 72.36 37.1 21.29 16.95 38.91 37.82 53.04 60.34 6.09 9.69 3.16 22.48-6.53 28.57-9.7 6.08-22.48 3.15-28.57-6.54z"
                  fill="#6c0000"
                  transform="matrix(.26665043777 -.05980241862 .06035213085 .26422195283 6426.3105766859 17990.647476612)"/>
            <path d="m1605.87 2899.97c-1.28 0-2.58-.07-3.89-.22-13.28-1.45-23.23-9.94-22.24-18.94.89-8.11 10.36-13.88 21.93-13.88 1.27 0 2.57.07 3.89.21 13.27 1.46 23.23 9.94 22.24 18.95-.89 8.11-10.36 13.88-21.93 13.88z"
                  fill="#d68600"
                  transform="matrix(.26665043777 -.05980241862 .06035213085 .26422195283 6426.3105766859 17990.647476612)"/>
            <path d="m1670.83 2310.11c-2.5 0-5.08-.2-7.69-.62-18.39-2.91-31.69-15.39-29.72-27.87 1.7-10.7 14.09-17.92 29.18-17.92 2.51 0 5.08.2 7.7.61 18.38 2.91 31.69 15.39 29.71 27.87-1.7 10.7-14.09 17.93-29.18 17.93z"
                  fill="#d68600"
                  transform="matrix(.26665043777 -.05980241862 .06035213085 .26422195283 6426.3105766859 17990.647476612)"/>
            <path d="m1748.8 2348.23c-1.14 0-2.32-.09-3.51-.28-8.38-1.33-14.45-7.02-13.55-12.71.78-4.88 6.43-8.17 13.31-8.17 1.14 0 2.32.09 3.51.28 8.38 1.32 14.45 7.01 13.55 12.7-.78 4.88-6.43 8.18-13.31 8.18z"
                  fill="#d68600"
                  transform="matrix(.26665043777 -.05980241862 .06035213085 .26422195283 6426.3105766859 17990.647476612)"/>
            <path d="m2371.8 1466.87c-.81 0-1.64-.04-2.47-.14-8.44-.92-14.77-6.32-14.14-12.04.56-5.16 6.58-8.83 13.94-8.83.81 0 1.64.05 2.47.14.99.11 1.94.27 2.86.5 3.22 1.95 6.42 3.9 9.62 5.87 1.26 1.73 1.88 3.68 1.66 5.67-.56 5.16-6.58 8.83-13.94 8.83z"
                  fill="#d68600"
                  transform="matrix(.26665043777 -.05980241862 .06035213085 .26422195283 6426.3105766859 17990.647476612)"/>
            <path d="m2384.08 1452.37c-3.2-1.97-6.4-3.92-9.62-5.87 4.22 1.02 7.68 3.19 9.62 5.87z" fill="#b75d00"
                  transform="matrix(.26665043777 -.05980241862 .06035213085 .26422195283 6426.3105766859 17990.647476612)"/>
            <path d="m1493.51 2871c-2.01 0-4.07-.11-6.15-.34-20.95-2.3-36.67-15.69-35.11-29.91 1.41-12.81 16.36-21.92 34.63-21.92 2.01 0 4.06.11 6.14.34 20.95 2.3 36.68 15.69 35.11 29.91-1.4 12.81-16.35 21.92-34.62 21.92z"
                  fill="#d68600"
                  transform="matrix(.26665043777 -.05980241862 .06035213085 .26422195283 6426.3105766859 17990.647476612)"/>
            <path d="m2433.46 1546.33c-2.01 0-4.06-.11-6.14-.34-20.96-2.3-36.68-15.69-35.12-29.91 1.41-12.81 16.36-21.92 34.63-21.92 2.01 0 4.06.11 6.14.34 20.96 2.3 36.68 15.7 35.12 29.92-1.41 12.8-16.36 21.91-34.63 21.91z"
                  fill="#d68600"
                  transform="matrix(.26665043777 -.05980241862 .06035213085 .26422195283 6426.3105766859 17990.647476612)"/>
            <path d="m1514.34 2572.46c25.35-34.62 42-37.72 53.54-29.27s13.61 25.26-11.75 59.88-55.27 55.84-66.81 47.39c-11.54-8.46-.34-43.38 25.02-78z"
                  fill="#00a15b"
                  transform="matrix(.26665043777 -.05980241862 .06035213085 .26422195283 6426.3105766859 17990.647476612)"/>
            <path d="m2017.71 2125.08c22.81-31.14 37.78-33.93 48.16-26.33s12.23 22.72-10.58 53.85c-22.8 31.14-49.7 50.21-60.08 42.61-10.37-7.6-.3-39 22.5-70.13z"
                  fill="#00a15b"
                  transform="matrix(.26665043777 -.05980241862 .06035213085 .26422195283 6426.3105766859 17990.647476612)"/>
            <path d="m1479.98 1318.66c-36.94-21.86-41.65-38.12-34.37-50.43s23.81-16.01 60.74 5.84c36.94 21.85 60.98 49.55 53.69 61.86-7.28 12.31-43.13 4.58-80.06-17.27z"
                  fill="#00a15b"
                  transform="matrix(.26665043777 -.05980241862 .06035213085 .26422195283 6426.3105766859 17990.647476612)"/>
            <path d="m1823.22 1584.75c35.07-24.73 51.84-22.37 60.08-10.68 8.25 11.69 4.85 28.28-30.22 53.01-35.08 24.74-70.19 35.31-78.43 23.62-8.25-11.69 13.5-41.22 48.57-65.95z"
                  fill="#00a15b"
                  transform="matrix(.26665043777 -.05980241862 .06035213085 .26422195283 6426.3105766859 17990.647476612)"/>
            <path d="m2658.82 2175.57c-.72 0-1.45-.02-2.19-.06l-6.12-.25c-2-.2-3.91-.71-5.88-.99-7.68-1.69-15-4.41-21.41-9.17-6.44-4.67-12.23-10.71-17.21-17.76-4.92-7.14-8.82-15.34-12-23.91-3.24-8.59-5.14-17.83-6.48-27.06l-.8-6.97-.35-7c-.03-.86-.06-1.73-.07-2.6 14.84 6.75 27.82 9.93 38.94 9.93 60.29 0 65.94-93.4 18.42-216.4-15.37-39.8-22.77-75.86-25.35-107.36-3.29-40.07 24.11-75.12 61.9-82.87-2.46 3.62-4.65 7.42-6.56 11.33-5.32 11.09-8.95 22.9-10.64 34.61-1.76 11.69-2.62 23.44-2.23 34.89.29 11.47 1.04 22.84 2.66 33.95 5.66 44.39 18.9 87.31 33.55 128.03 7.17 20.43 14.69 40.44 21.47 60.36 3.3 9.82 6.32 19.45 8.8 29.19 2.58 9.7 4.67 19.43 6.02 29.12 2.91 19.36 2.98 38.58-.68 56.49-1.75 9-4.84 17.48-8.37 25.73-2.12 3.96-3.9 8.1-6.48 11.81-2.4 3.93-4.69 7.5-7.48 10.67-10.84 13.04-25.82 22.36-41.65 25.27-3.25.61-6.5 1.02-9.81 1.02z"
                  fill="#d68600"
                  transform="matrix(.26665043777 -.05980241862 .06035213085 .26422195283 6426.3105766859 17990.647476612)"/>
        </g>
        <path d="m1731 1010.43c-2.83-4.84-7.97-15.393-7-20.43 2.1-10.832 6.25-14.682 12-16.182 5.75-1.501 24-2.031 32 0 6.5 1.649 15.16 9.402 16 12.182s4.17 11.724 2 17c-2.33 5.67-8.67 14.39-16 17-7.5 2.67-22.5.6-29-1-4.26-1.05-7.78-4.79-10-8.57z"
              fill="#fff"
              transform="matrix(.95250153933 .05140084831 -.05187306465 .94382669275 5288.76885456 17334.066438546)"/>
        <path d="m1828.47 1022.16c5.71-.33 15.41-.71 18.53-7.21s3.8-11.8 2.05-17.401c-1.74-5.605-5.19-9.328-8.1-11.161-2.91-1.834-6.51-4.647-13.57-4.543-6.91.101-10.74 2.55-14.2 5.641-4.37 3.902-6.5 11.931-6.54 14.824-.07 4.91 2.83 10.1 6.12 14.64 3.24 4.47 10.2 5.53 15.71 5.21z"
              fill="#231f20"
              transform="matrix(.90560274479 .04886999904 -.04931896463 .89735502596 5297.40854255057 17380.39709402867)"/>
        <path d="m1724.92 1009.33c2.75 4.03 7.23 9.71 14.67 12.92 6.7 2.9 23.43 4 31.6 1.09 8.5-3.02 17.21-9.13 18.65-18.63 1.36-8.971-.88-14.639-5.88-22.325-6.04-9.26-11.1-11.346-22.71-14.277-8.65-2.182-17.61-.041-23.82 1.613-8.8 2.343-14.62 7.202-16.92 19.636-1.9 10.333 2.78 17.593 4.41 19.973zm5.85-4c-1.2-1.75-4.69-7.084-3.28-14.687 1.62-8.801 5.54-12.413 11.77-14.072 5.28-1.407 12.89-3.446 20.25-1.589 9.38 2.367 13.63 3.793 18.51 11.273 3.91 6.007 5.87 10.379 4.81 17.385-1.05 6.89-7.85 10.83-14.02 13.02-6.83 2.43-20.81 1.51-26.4-.91-5.95-2.57-9.44-7.2-11.64-10.42z"
              fill="#6a0b0d"
              transform="matrix(.95250153933 .05140084831 -.05187306465 .94382669275 5288.76885456 17334.066438546)"/>
        <path d="m1731 1010.43c-2.83-4.84-7.97-15.393-7-20.43 2.1-10.832 6.25-14.682 12-16.182 5.75-1.501 24-2.031 32 0 6.5 1.649 15.16 9.402 16 12.182s4.17 11.724 2 17c-2.33 5.67-8.67 14.39-16 17-7.5 2.67-22.5.6-29-1-4.26-1.05-7.78-4.79-10-8.57z"
              fill="#fff"
              transform="matrix(.92029098034 .04966137636 -.05011761227 .91190948936 5463.3265512766 17380.63437468042)"/>
        <path d="m1828.47 1022.16c5.71-.33 15.41-.71 18.53-7.21s3.8-11.8 2.05-17.401c-1.74-5.605-5.19-9.328-8.1-11.161-2.91-1.834-6.51-4.647-13.57-4.543-6.91.101-10.74 2.55-14.2 5.641-4.37 3.902-6.5 11.931-6.54 14.824-.07 4.91 2.83 10.1 6.12 14.64 3.24 4.47 10.2 5.53 15.71 5.21z"
              fill="#231f20"
              transform="matrix(.8749781532 .04721617434 -.04764994634 .86700934588 5471.67413420486 17425.39826066552)"/>
        <path d="m1726.5 1011.68c5.42 6.97 9.21 8.44 17.36 11.54 10.05 3.81 18.72 2.59 27.1.32 6.85-1.85 11.09-4.02 14.07-7.33 2.05-2.27 3.54-5.11 4.73-8.9 2.61-8.33 1.18-18.372-2.95-24.583-6.86-10.316-11.4-11.36-23.03-14.295-8.54-2.156-22.56.233-28.71 1.836-3.55.926-7.03 2.616-9.75 5.701-2.63 2.986-4.61 7.329-4.98 13.823-.59 10.268 2.28 16.898 6.16 21.888zm5.8-4.51c-3.01-3.85-5.09-9.021-4.64-16.962.25-4.377 1.39-7.374 3.17-9.386 1.68-1.915 3.89-2.88 6.1-3.454 5.36-1.4 17.6-3.704 25.06-1.821 9.36 2.363 13.18 2.933 18.71 11.241 3.07 4.626 4 12.121 2.06 18.322-2.11 6.7-5.42 9.1-13.72 11.35-6.98 1.89-14.21 3.07-22.58-.1-6.6-2.51-9.77-3.54-14.16-9.19z"
              fill="#6a0b0d"
              transform="matrix(.92029098034 .04966137636 -.05011761227 .91190948936 5463.3265512766 17380.63437468042)"/>
        <path d="m2657.9 2192.9c-61.34 0-90.87-61.21-91.92-115.64-.06-2.35-.06-4.7-.01-7.03 3.9 1.52 8.01 3.43 12.35 5.68 2.72 1.41 5.38 2.7 7.99 3.89.01.87.04 1.74.07 2.6l.35 7 .8 6.97c1.34 9.23 3.24 18.47 6.48 27.06 3.18 8.57 7.08 16.77 12 23.91 4.98 7.05 10.77 13.09 17.21 17.76 6.41 4.76 13.73 7.48 21.41 9.17 1.97.28 3.88.79 5.88.99l6.12.25c.74.04 1.47.06 2.19.06 3.31 0 6.56-.41 9.81-1.02 15.83-2.91 30.81-12.23 41.65-25.27 2.79-3.17 5.08-6.74 7.48-10.67 2.58-3.71 4.36-7.85 6.48-11.81 3.53-8.25 6.62-16.73 8.37-25.73 3.66-17.91 3.59-37.13.68-56.49-1.35-9.69-3.44-19.42-6.02-29.12-2.48-9.74-5.5-19.37-8.8-29.19-6.78-19.92-14.3-39.93-21.47-60.36-14.65-40.72-27.89-83.64-33.55-128.03-1.62-11.11-2.37-22.48-2.66-33.95-.39-11.45.47-23.2 2.23-34.89 1.69-11.71 5.32-23.52 10.64-34.61 1.91-3.91 4.1-7.71 6.56-11.33 2.84-.59 5.74-1.02 8.69-1.28-2.83 6.97-4.51 13.32-5.5 18.29-7.19 16.94-7.74 37.95-5.46 59.65l-3.74 45.34 10.49-4.28c2.67 13.01 5.5 25.5 7.63 36.68 9.25 48.55 31.85 93.35 47.98 140.04 19.6 56.88 29.37 121.68-7.31 174.25-17.01 24.35-44.02 40.66-73.72 41.1-.46 0-.93.01-1.38.01z"
              fill="#6c0000" fill-rule="nonzero"
              transform="matrix(.26665043777 -.05980241862 .06035213085 .26422195283 6426.3105766859 17990.647476612)"/>
        <path d="m1857.17 3049.47c-2.03 0-4.08-.17-6.13-.52-7.55-.96-15.05-3.9-21.25-8.69-3.23-2.25-5.85-5.22-8.54-8.16-3.44-4.37-7.01-8.88-10.68-13.31-6.26-7.61-13.03-15.11-20.59-22.15 8.19 2.01 15.68 2.94 22.45 2.94 59.22.01 64.4-71.28 20.99-116.96-51.15-53.82-67.86-84.32-93.15-174.39-25.28-90.07 54.63-117.77 54.63-117.77s-11.46-71.13 53.71-77.51c-4.39 4.34-8.02 9.59-10.42 15.41-1.07 2.26-1.72 4.6-2.29 6.98-.68 2.38-1.03 4.74-1.18 7.09l-.27 3.55c-.05.55-.03 1.27-.03 1.7l.02 1.07.07 4.25c.23 11.14.38 21.11-.93 29.49-1.3 8.5-3.81 14.27-8.79 21.24-5.04 6.84-12.28 13.86-20.35 21.77-8.03 7.96-17.09 17.03-24.55 29.21-7.42 12.32-11.97 26.86-12.64 40.85-.87 14.04 1.13 27.61 4.96 40.08 3.82 12.51 9.11 24.23 15.7 35.06 6.68 10.98 14.34 20.6 22.09 29.49 15.67 17.73 32.05 32.8 45.97 48.13 7.01 7.65 13.22 15.29 18.76 23.41 5.56 8.14 10.47 16.74 14.67 25.68 8.42 17.89 13.82 37.16 16.4 56.68 1.28 9.85 1.74 19.42 1.1 28.89-.58 9.46-2.17 18.64-4.9 27.09-2.64 8.51-6.72 16.01-11.69 22.45-1.39 1.45-2.55 3.16-4.06 4.48l-2.15 2.12-2.12 1.68c-2.74 2.36-5.89 4.06-9.16 5.56-4.84 1.93-10.19 3.11-15.65 3.11z"
              fill="#d68600" fill-rule="nonzero"
              transform="matrix(.26665043777 -.05980241862 .06035213085 .26422195283 6426.3105766859 17990.647476612)"/>
        <path d="m1859.01 3065.54c-19.81 0-39.63-9.5-52.05-26.98-13.49-18.99-27.26-36.92-44.23-49.47 3.22.14 7.43 1.18 12.79 3.12 5.05 1.84 9.87 3.3 14.46 4.43 7.56 7.04 14.33 14.54 20.59 22.15 3.67 4.43 7.24 8.94 10.68 13.31 2.69 2.94 5.31 5.91 8.54 8.16 6.2 4.79 13.7 7.73 21.25 8.69 2.05.35 4.1.52 6.13.52 5.46 0 10.81-1.18 15.65-3.11 3.27-1.5 6.42-3.2 9.16-5.56l2.12-1.68 2.15-2.12c1.51-1.32 2.67-3.03 4.06-4.48 4.97-6.44 9.05-13.94 11.69-22.45 2.73-8.45 4.32-17.63 4.9-27.09.64-9.47.18-19.04-1.1-28.89-2.58-19.52-7.98-38.79-16.4-56.68-4.2-8.94-9.11-17.54-14.67-25.68-5.54-8.12-11.75-15.76-18.76-23.41-13.92-15.33-30.3-30.4-45.97-48.13-7.75-8.89-15.41-18.51-22.09-29.49-6.59-10.83-11.88-22.55-15.7-35.06-3.83-12.47-5.83-26.04-4.96-40.08.67-13.99 5.22-28.53 12.64-40.85 7.46-12.18 16.52-21.25 24.55-29.21 8.07-7.91 15.31-14.93 20.35-21.77 4.98-6.97 7.49-12.74 8.79-21.24 1.31-8.38 1.16-18.35.93-29.49l-.07-4.25-.02-1.07c0-.43-.02-1.15.03-1.7l.27-3.55c.15-2.35.5-4.71 1.18-7.09.57-2.38 1.22-4.72 2.29-6.98 2.4-5.82 6.03-11.07 10.42-15.41 3.06-.3 6.28-.45 9.68-.45 8.97 0 19.17 1.08 30.78 3.51.11.02.19.05.28.08-1.8-.36-3.63-.53-5.45-.53-14.32 0-28.2 10.68-28.33 27.36-.01.16-.04.37 0 .53.22 18.36 1.62 37.44-5.46 54.43-11.18 26.81-40.77 41.9-54.13 67.69-16.53 31.9-3.82 71.76 17.55 100.63 21.33 28.87 50.51 51.15 72.52 79.47 24.98 32.14 40.07 71.73 42.85 112.32 2.34 33.77-5.15 70.62-30.8 93.03-11.33 9.86-25.21 14.52-39.09 14.52zm30.47-549.43c-.05 0-.09-.01-.13-.02.04 0 .08.01.13.02z"
              fill="#6c0000" fill-rule="nonzero"
              transform="matrix(.26665043777 -.05980241862 .06035213085 .26422195283 6426.3105766859 17990.647476612)"/>
        <path d="m1988.76 2558.08c-1.57 0-3.28-.15-5.09-.43-7.12-1.04-15.53-4.46-23.57-9.12-8.11-4.59-16.01-10.57-23.49-17.01-3.71-3.29-7.37-6.67-10.83-10.26-.09-.09-.18-.18-.27-.27 3.21.17 6.32.25 9.35.25 41.5 0 65.85-15.39 80.52-34.17-.31 7.87-.34 15.63-.29 23.27-.91 9.56-2.51 18.81-5.12 26.8-2.7 8.17-6.68 14.7-10.64 17.53-1.99 1.51-3.95 2.43-6.46 2.98-1.21.29-2.6.43-4.11.43z"
              fill="#d68600" fill-rule="nonzero"
              transform="matrix(.26665043777 -.05980241862 .06035213085 .26422195283 6426.3105766859 17990.647476612)"/>
        <path d="m1988.94 2574.95c-27.1.01-60.18-23.31-84.02-49.95-4.35-4.84-9.67-7.67-15.19-8.84 13.06 2.71 24.96 4.26 35.78 4.83l.27.27c3.46 3.59 7.12 6.97 10.83 10.26 7.48 6.44 15.38 12.42 23.49 17.01 8.04 4.66 16.45 8.08 23.57 9.12 1.81.28 3.52.43 5.09.43 1.51 0 2.9-.14 4.11-.43 2.51-.55 4.47-1.47 6.46-2.98 3.96-2.83 7.94-9.36 10.64-17.53 2.61-7.99 4.21-17.24 5.12-26.8-.05-7.64-.02-15.4.29-23.27 10.81-13.84 16.35-29.52 19.61-42.21 7-27.17 26.84-44.63 35.76-51.32-31.93 24.53-34.98 72.67-34.5 113.84-4.27 49.57-23.49 67.57-47.31 67.57zm-99.21-58.79c-.09-.01-.17-.03-.25-.05.08.02.17.04.25.05z"
              fill="#6c0000" fill-rule="nonzero"
              transform="matrix(.26665043777 -.05980241862 .06035213085 .26422195283 6426.3105766859 17990.647476612)"/>
        <path d="m2071.32 2393.14c1.7-1.27 2.94-2.13 3.55-2.48-1.23.8-2.42 1.61-3.55 2.48z" fill="#802536"
              fill-rule="nonzero"
              transform="matrix(.26665043777 -.05980241862 .06035213085 .26422195283 6426.3105766859 17990.647476612)"/>
        <path d="m2072.86 2395.21-3.11-4.13c.44-.34.9-.67 1.35-1 1.15-.82 2-1.39 2.49-1.66l2.69 4.42c-.8.51-1.58 1.03-2.33 1.57-.34.25-.7.51-1.09.8z"
              fill="#6c0000" fill-rule="nonzero"
              transform="matrix(.26665043777 -.05980241862 .06035213085 .26422195283 6426.3105766859 17990.647476612)"/>
        <path d="m2160.57 2044.61c3.01-62 22.96-89.88 50.29-133.26 23.79-37.77 56.26-30.14 91.25-33.18z" fill="#d68600"
              fill-rule="nonzero"
              transform="matrix(.26665043777 -.05980241862 .06035213085 .26422195283 6426.3105766859 17990.647476612)"/>
        <path d="m2106.12 2361.36c32.21-36.17 76.19-105.47 62.14-204.54-6.78-47.91-9.05-83.7-7.69-112.21l141.54-166.44c23.73-2.08 48.67-9.03 72.94-38.26 26.38-31.82 52.24-40.74 72.96-40.74 7.24 0 13.86 1.09 19.64 2.68-3.03 1.09-6.02 2.36-8.96 3.81-6.45 3.27-12.62 7.44-18.17 12.63-2.74 2.67-5.35 5.48-7.67 8.63-1.29 1.58-2.11 2.95-3.08 4.4-.97 1.43-1.87 2.89-2.69 4.36-6.88 11.81-10.69 24.06-13.54 35.43-2.82 11.43-4.65 22.15-6.85 32.03-1.1 5.01-2.2 9.28-3.61 13.65-1.38 4.33-3 8.47-4.88 12.28-3.7 7.66-8.39 14.05-13.45 17.78-5.03 3.86-10.2 5.36-17.29 5.42-7.2-.14-16.13-2.22-26.28-5.13-10.08-2.79-21.59-6.3-34.98-7.69-2.82-.25-5.72-.39-8.67-.39-4.14 0-8.39.28-12.67.96-7.21 1.27-14.28 3.33-20.73 6.38-12.95 6.05-23.75 14.92-32.3 25.02-8.66 10.09-15.16 21.53-19.86 33.75-4.58 12.29-6.98 24.39-8.29 36.49-2.46 24.15-.39 46.78 1.45 68.34 2.11 22.65 5.76 43.88 8.73 64.95 3.02 20.98 5.6 41.68 6.09 61.55.15 9.95-.28 19.3-1.75 28.43-1.47 9.21-3.88 18.31-7.16 27.02-6.49 17.44-16.77 33.27-29.83 44.71-6.53 5.72-13.75 10.3-21.46 13.51-7.54 3.31-16.43 5.22-26.46 6.86-8.37 1.4-17.47 2.49-27.17 4.33z"
              fill="#d68600" fill-rule="nonzero"
              transform="matrix(.26665043777 -.05980241862 .06035213085 .26422195283 6426.3105766859 17990.647476612)"/>
        <path d="m2075.26 2390.39c1-.72 14.39-10.55 30.86-29.03 9.7-1.84 18.8-2.93 27.17-4.33 10.03-1.64 18.92-3.55 26.46-6.86 7.71-3.21 14.93-7.79 21.46-13.51 13.06-11.44 23.34-27.27 29.83-44.71 3.28-8.71 5.69-17.81 7.16-27.02 1.47-9.13 1.9-18.48 1.75-28.43-.49-19.87-3.07-40.57-6.09-61.55-2.97-21.07-6.62-42.3-8.73-64.95-1.84-21.56-3.91-44.19-1.45-68.34 1.31-12.1 3.71-24.2 8.29-36.49 4.7-12.22 11.2-23.66 19.86-33.75 8.55-10.1 19.35-18.97 32.3-25.02 6.45-3.05 13.52-5.11 20.73-6.38 4.28-.68 8.53-.96 12.67-.96 2.95 0 5.85.14 8.67.39 13.39 1.39 24.9 4.9 34.98 7.69 10.15 2.91 19.08 4.99 26.28 5.13 7.09-.06 12.26-1.56 17.29-5.42 5.06-3.73 9.75-10.12 13.45-17.78 1.88-3.81 3.5-7.95 4.88-12.28 1.41-4.37 2.51-8.64 3.61-13.65 2.2-9.88 4.03-20.6 6.85-32.03 2.85-11.37 6.66-23.62 13.54-35.43.82-1.47 1.72-2.93 2.69-4.36.97-1.45 1.79-2.82 3.08-4.4 2.32-3.15 4.93-5.96 7.67-8.63 5.55-5.19 11.72-9.36 18.17-12.63 2.94-1.45 5.93-2.72 8.96-3.81 15.35 4.2 24.87 11.88 24.87 11.88-17.13 1.3-33.89 9.2-43.51 22.79-14.64 20.8-16.84 47.45-22.78 72.12-5.86 24.37-18.47 50.45-42.29 58.15-5.15 1.66-10.33 2.34-15.54 2.34-11.54 0-23.23-3.32-35.03-6.64-11.79-3.32-23.67-6.65-35.59-6.65-1.39 0-2.78.05-4.17.14-30.09 2.12-54.13 28.3-63.38 56.99-9.25 28.68-6.76 59.7-4.18 89.75 3.9 46.13 19.73 111.19 13.76 157.07-5.99 45.93-32.74 92.08-76.34 107.57-28.85 10.22-62.52 6.52-88.21 23.03z"
              fill="#6c0000" fill-rule="nonzero"
              transform="matrix(.26665043777 -.05980241862 .06035213085 .26422195283 6426.3105766859 17990.647476612)"/>
        <path d="m1490.33 1945.94c-17.48 86.68 14.48 143.28 58.95 162.29 37.44 16.12 83.71 5.48 116.61-36.29 16.03-20.29 28.84-47.88 35.99-83.32 3.28-98.16-190.93-103.41-211.55-42.68z"
              fill="#6c0000" fill-rule="nonzero"
              transform="matrix(.26665009588 -.05980234195 .06035205346 .26422161405 6426.31073256781 17990.646994057)"/>
        <path d="m1550.51 2083.74c-1.54 8.72-1.15 17.31.9 25.35 37.83 15.18 83.83 3.39 115.67-39.19-7.89-18.22-24.52-32.24-45.59-35.95-33.31-5.86-65.11 16.42-70.98 49.79z"
              fill="#fd0017" fill-rule="nonzero"
              transform="matrix(.26665009588 -.05980234195 .06035205346 .26422161405 6426.31073256781 17990.646994057)"/>
        <path d="m1504.13 1956.72c-13.45 79.16 18.73 123.31 51.26 137.22 33.3 14.34 71.88 1.92 98.29-31.62 14.35-18.15 24.89-41.49 31.39-69.49-41.39-45.67-120.84-61.52-180.94-36.11zm79.96 174.3c-13.8 0-27.63-2.78-40.95-8.51-44.27-18.93-88.68-77.34-68.04-179.64.96-4.74 4.06-8.76 8.39-10.89 91.4-67.29 188.43-46.24 230.53 46.94 2.87 3.59 4 8.27 3.1 12.77-7.29 36.09-20.41 66.33-39.04 89.88-25.26 32.08-59.5 49.45-93.99 49.45z"
              fill="#6c0000" fill-rule="nonzero"
              transform="matrix(.26665009588 -.05980234195 .06035205346 .26422161405 6426.31073256781 17990.646994057)"/>
        <path d="m1897.08 2140.96c-6.15 18.11-38.04 23.65-71.24 12.38-33.19-11.27-55.12-35.08-48.97-53.18 6.14-18.11 38.04-23.65 71.23-12.39 33.19 11.27 55.12 35.08 48.98 53.19z"
              fill="#fd0017" fill-rule="nonzero"
              transform="matrix(.26665043777 -.05980241862 .06035213085 .26422195283 6426.3105766859 17990.647476612)"/>
        <path d="m1368.6 1977.01c-6.15 18.11-38.04 23.65-71.24 12.38-33.19-11.26-55.12-35.08-48.97-53.18 6.14-18.11 38.03-23.65 71.23-12.39 33.19 11.27 55.12 35.08 48.98 53.19z"
              fill="#fd0017" fill-rule="nonzero"
              transform="matrix(.26665043777 -.05980241862 .06035213085 .26422195283 6426.3105766859 17990.647476612)"/>
        <path d="m1798.49 831.496c-5.66 0-11.33-.481-16.57-1.211-65.69-9.146-131.39-18.292-197.08-27.437-46.33-6.45-92.65-12.9-138.98-19.349-12.85-1.79-27.28-4.533-34.4-15.376-8.03-12.211-2.27-29.588 8.77-39.159 26.52-22.993 67.35-29.241 107.59-29.241 28.64 0 56.97 3.166 79.61 5.713 68.97 7.758 136.56 28.199 198 60.562 17.97 9.466 38.18 26.392 32.09 45.765-4.82 15.313-21.88 19.734-39.03 19.733z"
              fill="#ed9956" fill-rule="nonzero"
              transform="matrix(.26665043777 -.05980241862 .06035213085 .26422195283 6426.3105766859 17990.647476612)"/>
        <path d="m2059.57 909.222c-18.47 0-42.99-5.62-69.69-13.53-51.43-15.241-91.46-33.208-83.88-58.791 5.02-16.932 27.68-26.332 57.33-26.332 15.16 0 32.13 2.452 49.52 7.605 51.43 15.239 86.98 48.332 79.4 73.915-3.64 12.305-15.57 17.133-32.68 17.133z"
              fill="#ed9956" fill-rule="nonzero"
              transform="matrix(.26665043777 -.05980241862 .06035213085 .26422195283 6426.3105766859 17990.647476612)"/>
        <path d="m1597.96 1598.9c-6.8 0-13.53-1.45-19.71-4.59-24.24-12.33-33.24-44.09-56.98-57.34-9.39-5.24-19.85-6.95-30.63-6.95-11.34 0-23.04 1.89-34.23 3.52-7.63 1.11-15.63 1.96-23.51 1.96-14.7 0-28.97-2.95-39.58-12.65-16.14-14.75-17.22-41.49-6.06-60.29s32-30.22 53.36-34.9c9.3-2.04 19.01-2.94 28.92-2.94 38.66 0 80.45 13.78 114.01 27.8 23.52 9.83 45.44 25.36 58.36 47.33 12.92 21.96 15.45 50.94 2.34 72.8-9.54 15.9-28.13 26.25-46.29 26.25z"
              fill="#ffd43c" fill-rule="nonzero"
              transform="matrix(.26665043777 -.05980241862 .06035213085 .26422195283 6426.3105766859 17990.647476612)"/>
        <path d="m1659.85 1751c-4.36 0-8.8-.83-12.88-2.26-14.75-5.18-26.87-17.38-31.95-32.17-5.07-14.79-3-31.86 5.46-45.01 6.41-9.94 19.85-19.03 32.5-19.03 4.7 0 9.28 1.26 13.36 4.18 14.88 10.7 17.75 42.98 18.66 59.26.57 10.29-.42 21.77-7.9 28.87-4.6 4.36-10.83 6.16-17.25 6.16z"
              fill="#ffd43c" fill-rule="nonzero"
              transform="matrix(.26665043777 -.05980241862 .06035213085 .26422195283 6426.3105766859 17990.647476612)"/>
        <path d="m2696.23 1770.27c-1.88-12.83-2.86-25.56-2.51-37.98.7-19.29 5.45-37.42 17.03-52.15l.28-.35c2.96-3.76 3.01-9.2-.16-13.04-2.06-2.49-5.03-3.78-8.02-3.78-1.51 0-3.03.33-4.43 1 9.31-13.79 23.91-27.52 46.75-36.3 36.42 19.55 76.83 30.98 118.41 33.22-56.4 33.58-112.32 70.15-167.35 109.38z"
              fill="#b75d00" fill-rule="nonzero"
              transform="matrix(.26665043777 -.05980241862 .06035213085 .26422195283 6426.3105766859 17990.647476612)"/>
        <path d="m2700.63 1794.31c-.18-.86-.35-1.71-.52-2.57-1.52-7.16-2.84-14.33-3.88-21.47 55.03-39.23 110.95-75.8 167.35-109.38 5.04.27 10.09.41 15.16.41 5.61 0 11.25-.17 16.89-.5.89-.06 1.79-.12 2.68-.18l-2.33 5.21-57.34 44.95-95.23 66.03z"
              fill="#6c0000" fill-rule="nonzero"
              transform="matrix(.26665043777 -.05980241862 .06035213085 .26422195283 6426.3105766859 17990.647476612)"/>
        <path d="m2684.7 1800.82c-2.74-13.41-5.31-27.37-6.75-41.06l4.04-48.98s.12-4.14 1.42-10.67c2.95-6.97 7.03-13.25 12.5-18.61-2.36 0-4.69.11-7 .32 2.32-5.68 5.4-11.78 9.51-17.85 1.4-.67 2.92-1 4.43-1 2.99 0 5.96 1.29 8.02 3.78 3.17 3.84 3.12 9.28.16 13.04l-.28.35c-11.58 14.73-16.33 32.86-17.03 52.15-.35 12.42.63 25.15 2.51 37.98 1.04 7.14 2.36 14.31 3.88 21.47.17.86.34 1.71.52 2.57z"
              fill="#6c0000" fill-rule="nonzero"
              transform="matrix(.26665043777 -.05980241862 .06035213085 .26422195283 6426.3105766859 17990.647476612)"/>
        <path d="m2878.74 1661.3c-5.07 0-10.12-.14-15.16-.41-41.58-2.24-81.99-13.67-118.41-33.22 7.38-2.84 15.62-5.16 24.82-6.79l65.45 1.3 71.84 18.4-8.97 20.04c-.89.06-1.79.12-2.68.18-5.64.33-11.28.5-16.89.5z"
              fill="#6c0000" fill-rule="nonzero"
              transform="matrix(.26665043777 -.05980241862 .06035213085 .26422195283 6426.3105766859 17990.647476612)"/>
        <path d="m2674.21 1805.1 3.74-45.34c1.44 13.69 4.01 27.65 6.75 41.06zm9.2-104.99c.99-4.97 2.67-11.32 5.5-18.29 2.31-.21 4.64-.32 7-.32-5.47 5.36-9.55 11.64-12.5 18.61z"
              fill="#6c0000" fill-rule="nonzero"
              transform="matrix(.26665043777 -.05980241862 .06035213085 .26422195283 6426.3105766859 17990.647476612)"/>
        <path d="m1722 944c-.17.962-4.07-1.872-6-3-2.67-1.557-7.41-3.36-10-6.343-2.89-3.334-5-9.214-7.33-13.657-2.27-4.311-4.39-9.5-6.67-13-1.93-2.97-6.83-6.667-7-8s4.17-.804 6 0c2.28 1 5.93 3.256 7.67 6 3.05 4.833 7.58 18.129 10.64 23 1.75 2.794 5.57 3.726 7.69 6.226s5.17 7.812 5 8.774z"
              fill="#6a0b0d"
              transform="matrix(-1.12383239949 -.81436889983 -.88862857675 1.20407397789 9747.556375568 18617.58969162)"/>
        <path d="m1722 944c-.17.962-4.07-1.872-6-3-2.67-1.557-7.41-3.36-10-6.343-2.89-3.334-5-9.214-7.33-13.657-2.27-4.311-4.39-9.5-6.67-13-1.93-2.97-6.83-6.667-7-8s4.17-.804 6 0c2.28 1 5.93 3.256 7.67 6 3.05 4.833 7.58 18.129 10.64 23 1.75 2.794 5.57 3.726 7.69 6.226s5.17 7.812 5 8.774z"
              fill="#6a0b0d"
              transform="matrix(1.35793254459 -.3045472236 .33231766065 1.45488850227 4304.820181068 17502.582213504)"/>
    </g>
</svg>
